<svg width="512" height="512" viewBox="0 0 512 512" fill="none" xmlns="http://www.w3.org/2000/svg">
<g clip-path="url(#clip0_780_7442)">
<path d="M270.001 226.001C270.001 217.71 263.292 211.001 255.001 211.001C197.11 211.001 150.001 163.892 150.001 106.001C150.001 97.71 143.292 91.001 135.001 91.001C126.709 91.001 120 97.71 120 106.001C120 163.892 72.8913 211.001 15.0001 211.001C6.70903 211.001 0 217.71 0 226.001C0 234.293 6.70903 241.002 15.0001 241.002C72.8913 241.002 120 288.111 120 346.002C120 354.293 126.709 361.002 135.001 361.002C143.292 361.002 150.001 354.293 150.001 346.002C150.001 288.111 197.11 241.002 255.001 241.002C263.292 241.002 270.001 234.293 270.001 226.001ZM497 181.001C472.186 181.001 452 160.815 452 136.001C452 127.71 445.291 121.001 437 121.001C428.709 121.001 422 127.71 422 136.001C422 160.815 401.814 181.001 376.999 181.001C368.708 181.001 361.999 187.71 361.999 196.001C361.999 204.292 368.708 211.001 376.999 211.001C401.814 211.001 422 231.188 422 256.002C422 264.293 428.709 271.002 437 271.002C445.291 271.002 452 264.293 452 256.002C452 231.188 472.186 211.001 497 211.001C505.291 211.001 512 204.292 512 196.001C512 187.71 505.291 181.001 497 181.001ZM436 361.002C394.647 361.002 360.999 327.355 360.999 286.002C360.999 277.711 354.29 271.002 345.999 271.002C337.708 271.002 330.999 277.711 330.999 286.002C330.999 327.355 297.352 361.002 255.999 361.002C247.708 361.002 240.999 367.711 240.999 376.002C240.999 384.293 247.708 391.002 255.999 391.002C297.352 391.002 330.999 424.649 330.999 466.002C330.999 474.293 337.708 481.002 345.999 481.002C354.29 481.002 360.999 474.293 360.999 466.002C360.999 424.649 394.647 391.002 436 391.002C444.291 391.002 451 384.293 451 376.002C451 367.711 444.291 361.002 436 361.002Z" fill="url(#paint0_linear_780_7442)"/>
<path d="M166 420.998C157.716 420.998 151 427.714 151 435.998C151 444.285 157.716 450.999 166 450.999C174.286 450.999 181 444.285 181 435.998C181 427.714 174.285 420.998 166 420.998ZM229.6 43.7969C221.316 43.7969 214.6 50.5129 214.6 58.7969C214.6 67.083 221.316 73.797 229.6 73.797C237.886 73.797 244.6 67.083 244.6 58.7969C244.6 50.5129 237.885 43.7969 229.6 43.7969ZM333.601 120.597C325.317 120.597 318.601 127.313 318.601 135.597C318.601 143.883 325.317 150.597 333.601 150.597C341.887 150.597 348.601 143.883 348.601 135.597C348.601 127.313 341.886 120.597 333.601 120.597Z" fill="url(#paint1_linear_780_7442)"/>
</g>
<defs>
<linearGradient id="paint0_linear_780_7442" x1="492.8" y1="479.995" x2="32" y2="38.3947" gradientUnits="userSpaceOnUse">
<stop offset="0.164787" stop-color="#FFD2D6"/>
<stop offset="0.402346" stop-color="#E3C0FA"/>
<stop offset="0.723948" stop-color="#FFD2D6"/>
<stop offset="0.952159" stop-color="#FFE37E"/>
</linearGradient>
<linearGradient id="paint1_linear_780_7442" x1="225.501" y1="481.003" x2="225.501" y2="30.9969" gradientUnits="userSpaceOnUse">
<stop stop-color="#D195F8"/>
<stop offset="1" stop-color="#F4E6FD"/>
</linearGradient>
<clipPath id="clip0_780_7442">
<rect width="512" height="512" fill="white"/>
</clipPath>
</defs>
</svg>
