<svg width="20" height="20" viewBox="0 0 20 20" fill="none" xmlns="http://www.w3.org/2000/svg">
<g clip-path="url(#clip0_512_4507)">
<path d="M10.5469 8.82815C10.5469 8.50428 10.2848 8.24221 9.96098 8.24221C7.6996 8.24221 5.8594 6.402 5.8594 4.14063C5.8594 3.81676 5.59733 3.55469 5.27346 3.55469C4.94959 3.55469 4.68752 3.81676 4.68752 4.14063C4.68752 6.402 2.84732 8.24221 0.58594 8.24221C0.262071 8.24221 0 8.50428 0 8.82815C0 9.15201 0.262071 9.41409 0.58594 9.41409C2.84732 9.41409 4.68752 11.2543 4.68752 13.5157C4.68752 13.8395 4.94959 14.1016 5.27346 14.1016C5.59733 14.1016 5.8594 13.8395 5.8594 13.5157C5.8594 11.2543 7.6996 9.41409 9.96098 9.41409C10.2848 9.41409 10.5469 9.15201 10.5469 8.82815ZM19.4141 7.07033C18.4448 7.07033 17.6562 6.28181 17.6562 5.31251C17.6562 4.98864 17.3942 4.72657 17.0703 4.72657C16.7464 4.72657 16.4844 4.98864 16.4844 5.31251C16.4844 6.28181 15.6958 7.07033 14.7265 7.07033C14.4027 7.07033 14.1406 7.3324 14.1406 7.65627C14.1406 7.98013 14.4027 8.24221 14.7265 8.24221C15.6958 8.24221 16.4844 9.03072 16.4844 10C16.4844 10.3239 16.7464 10.586 17.0703 10.586C17.3942 10.586 17.6562 10.3239 17.6562 10C17.6562 9.03072 18.4448 8.24221 19.4141 8.24221C19.7379 8.24221 20 7.98013 20 7.65627C20 7.3324 19.7379 7.07033 19.4141 7.07033ZM17.0312 14.1016C15.4159 14.1016 14.1015 12.7873 14.1015 11.1719C14.1015 10.848 13.8395 10.586 13.5156 10.586C13.1917 10.586 12.9297 10.848 12.9297 11.1719C12.9297 12.7873 11.6153 14.1016 9.99996 14.1016C9.67609 14.1016 9.41402 14.3637 9.41402 14.6875C9.41402 15.0114 9.67609 15.2735 9.99996 15.2735C11.6153 15.2735 12.9297 16.5878 12.9297 18.2032C12.9297 18.5271 13.1917 18.7891 13.5156 18.7891C13.8395 18.7891 14.1015 18.5271 14.1015 18.2032C14.1015 16.5878 15.4159 15.2735 17.0312 15.2735C17.3551 15.2735 17.6172 15.0114 17.6172 14.6875C17.6172 14.3637 17.3551 14.1016 17.0312 14.1016Z" fill="url(#paint0_linear_512_4507)"/>
<path d="M2.9297 16.4455H2.34376V15.8596C2.34376 15.5357 2.08169 15.2736 1.75782 15.2736C1.43395 15.2736 1.17188 15.5357 1.17188 15.8596V16.4455H0.58594C0.262071 16.4455 0 16.7076 0 17.0315C0 17.3553 0.262071 17.6174 0.58594 17.6174H1.17188V18.2033C1.17188 18.5272 1.43395 18.7893 1.75782 18.7893C2.08169 18.7893 2.34376 18.5272 2.34376 18.2033V17.6174H2.9297C3.25357 17.6174 3.51564 17.3553 3.51564 17.0315C3.51564 16.7076 3.25357 16.4455 2.9297 16.4455ZM6.4844 16.4454C6.16081 16.4454 5.89846 16.7077 5.89846 17.0313C5.89846 17.355 6.16081 17.6173 6.4844 17.6173C6.80807 17.6173 7.07034 17.355 7.07034 17.0313C7.07034 16.7077 6.80803 16.4454 6.4844 16.4454ZM2.96876 1.21094C2.64517 1.21094 2.38282 1.47328 2.38282 1.79688C2.38282 2.12055 2.64517 2.38282 2.96876 2.38282C3.29243 2.38282 3.5547 2.12055 3.5547 1.79688C3.5547 1.47328 3.2924 1.21094 2.96876 1.21094ZM11.211 2.38297H10.625V1.79703C10.625 1.47317 10.363 1.21109 10.0391 1.21109C9.71523 1.21109 9.45316 1.47317 9.45316 1.79703V2.38297H8.86722C8.54335 2.38297 8.28128 2.64504 8.28128 2.96891C8.28128 3.29278 8.54335 3.55485 8.86722 3.55485H9.45316V4.14079C9.45316 4.46466 9.71523 4.72673 10.0391 4.72673C10.363 4.72673 10.625 4.46466 10.625 4.14079V3.55485H11.211C11.5349 3.55485 11.7969 3.29278 11.7969 2.96891C11.7969 2.64504 11.5349 2.38297 11.211 2.38297ZM17.0313 1.21094C16.7077 1.21094 16.4454 1.47328 16.4454 1.79688C16.4454 2.12055 16.7077 2.38282 17.0313 2.38282C17.355 2.38282 17.6173 2.12055 17.6173 1.79688C17.6173 1.47328 17.3549 1.21094 17.0313 1.21094Z" fill="url(#paint1_linear_512_4507)"/>
</g>
<defs>
<linearGradient id="paint0_linear_512_4507" x1="19.25" y1="18.7498" x2="1.25" y2="1.49975" gradientUnits="userSpaceOnUse">
<stop offset="0.134496" stop-color="#D195F8"/>
<stop offset="0.318806" stop-color="#F1A2A0"/>
<stop offset="0.483867" stop-color="#FFE37E"/>
<stop offset="0.550187" stop-color="#D195F8"/>
<stop offset="0.699581" stop-color="#F1A2A0"/>
<stop offset="0.909149" stop-color="#FFD946"/>
</linearGradient>
<linearGradient id="paint1_linear_512_4507" x1="8.80863" y1="18.7893" x2="8.80863" y2="1.21094" gradientUnits="userSpaceOnUse">
<stop stop-color="#E3C0FA"/>
<stop offset="1" stop-color="#F4E6FD"/>
</linearGradient>
<clipPath id="clip0_512_4507">
<rect width="20" height="20" fill="white"/>
</clipPath>
</defs>
</svg>
