<svg width="512" height="512" viewBox="0 0 512 512" fill="none" xmlns="http://www.w3.org/2000/svg">
<path d="M504.828 62.5163L413.828 2.51627C409.199 -0.559726 403.281 -0.823726 398.418 1.76927C393.555 4.37627 390.508 9.45927 390.508 14.9973V104.645V105.348V224.996C390.508 233.287 397.217 239.996 405.508 239.996C413.799 239.996 420.508 233.287 420.508 224.996V115.807L501.254 89.2203C506.674 87.4183 510.629 82.6723 511.361 76.9893C512.123 71.3053 509.604 65.6953 504.828 62.5163ZM345.508 269H255.508C247.217 269 240.508 275.709 240.508 284V497C240.508 505.291 247.217 512 255.508 512H345.508C353.799 512 360.508 505.291 360.508 497V284C360.508 275.709 353.799 269 345.508 269ZM105.508 389H15.5078C7.21681 389 0.507812 395.709 0.507812 404V497C0.507812 505.291 7.21681 512 15.5078 512H105.508C113.799 512 120.508 505.291 120.508 497V404C120.508 395.709 113.799 389 105.508 389Z" fill="url(#paint0_linear_1284_28152)"/>
<path d="M345.508 59C304.141 59 270.508 92.647 270.508 134V134.377C257.936 124.861 242.46 119 225.508 119C184.141 119 150.508 152.647 150.508 194V224.377C137.936 214.861 122.46 209 105.508 209C64.1408 209 30.5078 242.647 30.5078 284V344C30.5078 352.291 37.2168 359 45.5078 359C53.7988 359 60.5078 352.291 60.5078 344V284C60.5078 259.186 80.6938 239 105.508 239C130.322 239 150.508 259.186 150.508 284C150.508 292.291 157.217 299 165.508 299C173.799 299 180.508 292.291 180.508 284V194C180.508 169.186 200.694 149 225.508 149C250.322 149 270.508 169.186 270.508 194V224C270.508 232.291 277.217 239 285.508 239C293.799 239 300.508 232.291 300.508 224V194V134C300.508 109.186 320.694 89 345.508 89C353.799 89 360.508 82.291 360.508 74C360.508 65.709 353.799 59 345.508 59ZM465.508 209H375.508C367.217 209 360.508 215.709 360.508 224V497C360.508 505.291 367.217 512 375.508 512H465.508C473.799 512 480.508 505.291 480.508 497V224C480.508 215.709 473.799 209 465.508 209ZM225.508 329H135.508C127.217 329 120.508 335.709 120.508 344V497C120.508 505.291 127.217 512 135.508 512H225.508C233.799 512 240.508 505.291 240.508 497V344C240.508 335.709 233.799 329 225.508 329Z" fill="url(#paint1_linear_1284_28152)"/>
<defs>
<linearGradient id="paint0_linear_1284_28152" x1="256.002" y1="512" x2="256.002" y2="0" gradientUnits="userSpaceOnUse">
<stop stop-color="#E3C0FA"/>
<stop offset="1" stop-color="#FFF1FF"/>
</linearGradient>
<linearGradient id="paint1_linear_1284_28152" x1="255.508" y1="512" x2="255.508" y2="59" gradientUnits="userSpaceOnUse">
<stop stop-color="#AE44F3"/>
<stop offset="1" stop-color="#E3C0FA"/>
</linearGradient>
</defs>
</svg>
