<svg width="512" height="512" viewBox="0 0 512 512" fill="none" xmlns="http://www.w3.org/2000/svg">
<g clip-path="url(#clip0_842_13359)">
<path d="M246.262 207.455C252.586 212.791 262.077 212.022 267.413 205.683C312.443 152.45 335.001 83.7802 330.93 14.1272C330.432 5.86519 323.137 -0.271813 315.079 0.0351871C306.818 0.518187 300.49 7.60819 300.987 15.8852C304.62 77.8042 284.552 138.974 244.504 186.318C239.143 192.631 239.934 202.094 246.262 207.455ZM126.496 26.6512C156.701 51.1722 167.248 94.3252 152.131 130.17C148.908 137.816 152.512 146.606 160.129 149.828C167.807 153.017 176.544 149.47 179.787 141.83C200.032 93.7692 185.881 36.2462 145.422 3.36019C138.977 -1.85481 129.543 -0.902813 124.328 5.54319C119.084 11.9732 120.08 21.4222 126.496 26.6512ZM499.655 151.249C420.114 136.791 338.634 177.133 302.542 249.291C298.85 256.703 301.839 265.712 309.25 269.418C316.835 273.159 325.724 269.997 329.378 262.709C359.553 202.372 428.112 168.798 494.264 180.751C502.203 182.23 510.232 176.855 511.725 168.681C513.19 160.536 507.799 152.728 499.655 151.249ZM370.891 301.102C363.273 304.325 359.669 313.114 362.892 320.746C366.085 328.392 374.934 331.952 382.551 328.759C418.44 313.671 460.569 324.233 485.09 354.394C490.298 360.813 499.737 361.801 506.184 356.577C512.599 351.348 513.596 341.899 508.352 335.469C475.509 295.009 418.996 280.902 370.891 301.102ZM237.837 272.499L217.49 282.154L193.293 227.959L153.625 188.295C150.109 184.779 145.041 183.241 140.178 184.164C135.285 185.116 131.184 188.412 129.221 192.997L126.258 199.911L116.097 253.623L107.766 243.062L78.3465 311.716L68.9115 363.733L59.6405 355.369L1.24251 491.098C-1.15949 496.738 0.0995078 503.271 4.43551 507.607C8.86151 512.033 15.4475 513.159 20.9585 510.786L94.7795 478.335L106.632 443.255L122.559 466.429L168.302 446.824L182.322 410.815L196.077 434.92L248.15 412.603L260.299 377.396L275.924 400.7L318.652 382.387C323.223 380.424 326.533 376.323 327.47 371.445C328.408 366.552 326.855 361.513 323.34 357.998L237.837 272.499Z" fill="url(#paint0_linear_842_13359)"/>
<path d="M75.9586 121C84.2426 121 90.9586 114.284 90.9586 106C90.9586 97.716 84.2426 91 75.9586 91C67.6746 91 60.9586 97.716 60.9586 106C60.9586 114.284 67.6746 121 75.9586 121ZM107.767 243.062L168.303 446.823L196.078 434.92L126.258 199.911L107.767 243.062ZM59.6406 355.368L94.7806 478.334L122.56 466.429L78.3466 311.715L59.6406 355.368ZM225.959 151C234.243 151 240.959 144.284 240.959 136C240.959 127.716 234.243 121 225.959 121C217.675 121 210.959 127.716 210.959 136C210.959 144.284 217.675 151 225.959 151ZM225.959 61C234.243 61 240.959 54.284 240.959 46C240.959 37.716 234.243 31 225.959 31C217.675 31 210.959 37.716 210.959 46C210.959 54.284 217.675 61 225.959 61ZM375.959 91C367.675 91 360.959 97.716 360.959 106C360.959 114.284 367.675 121 375.959 121C384.243 121 390.959 114.284 390.959 106C390.959 97.716 384.244 91 375.959 91ZM193.293 227.959L248.151 412.602L275.926 400.699L237.836 272.499L193.293 227.959ZM405.959 31C397.675 31 390.959 37.716 390.959 46C390.959 54.284 397.675 61 405.959 61C414.243 61 420.959 54.284 420.959 46C420.959 37.716 414.244 31 405.959 31ZM465.959 211C457.675 211 450.959 217.716 450.959 226C450.959 234.284 457.675 241 465.959 241C474.243 241 480.959 234.284 480.959 226C480.959 217.716 474.244 211 465.959 211ZM405.959 241C397.675 241 390.959 247.716 390.959 256C390.959 264.284 397.675 271 405.959 271C414.243 271 420.959 264.284 420.959 256C420.959 247.716 414.244 241 405.959 241Z" fill="url(#paint1_linear_842_13359)"/>
</g>
<defs>
<linearGradient id="paint0_linear_842_13359" x1="-3.42949" y1="499.741" x2="424.243" y2="72.0692" gradientUnits="userSpaceOnUse">
<stop stop-color="#F95943"/>
<stop offset="1" stop-color="#FFD2D6"/>
</linearGradient>
<linearGradient id="paint1_linear_842_13359" x1="26.7026" y1="410.256" x2="409.066" y2="27.893" gradientUnits="userSpaceOnUse">
<stop stop-color="#FFD2D6"/>
<stop offset="1" stop-color="#FFEDEF"/>
</linearGradient>
<clipPath id="clip0_842_13359">
<rect width="512" height="512" fill="white"/>
</clipPath>
</defs>
</svg>
