<svg width="48" height="48" viewBox="0 0 48 48" fill="none" xmlns="http://www.w3.org/2000/svg">
<g clip-path="url(#clip0_736_6335)">
<path d="M25.3126 21.1875C25.3126 20.4103 24.6836 19.7813 23.9063 19.7813C18.479 19.7813 14.0626 15.3648 14.0626 9.93751C14.0626 9.16022 13.4336 8.53125 12.6563 8.53125C11.879 8.53125 11.25 9.16022 11.25 9.93751C11.25 15.3648 6.83356 19.7813 1.40626 19.7813C0.628971 19.7813 0 20.4103 0 21.1875C0 21.9648 0.628971 22.5938 1.40626 22.5938C6.83356 22.5938 11.25 27.0103 11.25 32.4376C11.25 33.2149 11.879 33.8438 12.6563 33.8438C13.4336 33.8438 14.0626 33.2149 14.0626 32.4376C14.0626 27.0103 18.479 22.5938 23.9063 22.5938C24.6836 22.5938 25.3126 21.9648 25.3126 21.1875ZM46.5937 16.9688C44.2674 16.9688 42.375 15.0763 42.375 12.75C42.375 11.9727 41.746 11.3438 40.9687 11.3438C40.1914 11.3438 39.5625 11.9727 39.5625 12.75C39.5625 15.0763 37.67 16.9688 35.3437 16.9688C34.5664 16.9688 33.9374 17.5978 33.9374 18.375C33.9374 19.1523 34.5664 19.7813 35.3437 19.7813C37.67 19.7813 39.5625 21.6737 39.5625 24.0001C39.5625 24.7773 40.1914 25.4063 40.9687 25.4063C41.746 25.4063 42.375 24.7773 42.375 24.0001C42.375 21.6737 44.2674 19.7813 46.5937 19.7813C47.371 19.7813 48 19.1523 48 18.375C48 17.5978 47.371 16.9688 46.5937 16.9688ZM40.875 33.8438C36.9981 33.8438 33.8437 30.6894 33.8437 26.8126C33.8437 26.0353 33.2147 25.4063 32.4374 25.4063C31.6602 25.4063 31.0312 26.0353 31.0312 26.8126C31.0312 30.6894 27.8768 33.8438 23.9999 33.8438C23.2226 33.8438 22.5937 34.4728 22.5937 35.2501C22.5937 36.0274 23.2226 36.6564 23.9999 36.6564C27.8768 36.6564 31.0312 39.8108 31.0312 43.6876C31.0312 44.4649 31.6602 45.0939 32.4374 45.0939C33.2147 45.0939 33.8437 44.4649 33.8437 43.6876C33.8437 39.8108 36.9981 36.6564 40.875 36.6564C41.6523 36.6564 42.2812 36.0274 42.2812 35.2501C42.2812 34.4728 41.6523 33.8438 40.875 33.8438Z" fill="url(#paint0_linear_736_6335)"/>
<path d="M15.5625 39.472C14.7859 39.472 14.1562 40.1017 14.1562 40.8783C14.1562 41.6551 14.7859 42.2845 15.5625 42.2845C16.3393 42.2845 16.9688 41.6551 16.9688 40.8783C16.9688 40.1017 16.3392 39.472 15.5625 39.472ZM21.525 4.10938C20.7483 4.10938 20.1187 4.739 20.1187 5.51563C20.1187 6.29245 20.7483 6.92189 21.525 6.92189C22.3018 6.92189 22.9312 6.29245 22.9312 5.51563C22.9312 4.739 22.3017 4.10938 21.525 4.10938ZM31.2751 11.3094C30.4985 11.3094 29.8688 11.939 29.8688 12.7156C29.8688 13.4924 30.4985 14.1219 31.2751 14.1219C32.0519 14.1219 32.6814 13.4924 32.6814 12.7156C32.6814 11.939 32.0518 11.3094 31.2751 11.3094Z" fill="url(#paint1_linear_736_6335)"/>
</g>
<defs>
<linearGradient id="paint0_linear_736_6335" x1="46.2" y1="44.9994" x2="3.00001" y2="3.59941" gradientUnits="userSpaceOnUse">
<stop offset="0.164787" stop-color="#FFD2D6"/>
<stop offset="0.402346" stop-color="#E3C0FA"/>
<stop offset="0.723948" stop-color="#FFD2D6"/>
<stop offset="0.952159" stop-color="#FFE37E"/>
</linearGradient>
<linearGradient id="paint1_linear_736_6335" x1="21.1407" y1="45.0974" x2="21.1407" y2="2.90938" gradientUnits="userSpaceOnUse">
<stop stop-color="#E3C0FA"/>
<stop offset="1" stop-color="#F4E6FD"/>
</linearGradient>
<clipPath id="clip0_736_6335">
<rect width="48" height="48" fill="white"/>
</clipPath>
</defs>
</svg>
