<svg width="512" height="512" viewBox="0 0 512 512" fill="none" xmlns="http://www.w3.org/2000/svg">
<path d="M21.332 128.001C21.332 69.0903 69.0883 21.334 127.999 21.334H383.999C442.909 21.334 490.665 69.0903 490.665 128.001V384.001C490.665 442.911 442.909 490.667 383.999 490.667H127.999C69.0883 490.667 21.332 442.911 21.332 384.001V128.001Z" fill="url(#paint0_linear_2198_34588)"/>
<mask id="mask0_2198_34588" style="mask-type:alpha" maskUnits="userSpaceOnUse" x="21" y="21" width="470" height="470">
<path d="M21.3359 128.001C21.3359 69.0903 69.0922 21.334 128.003 21.334H384.003C442.913 21.334 490.669 69.0903 490.669 128.001V384.001C490.669 442.911 442.913 490.667 384.003 490.667H128.003C69.0922 490.667 21.3359 442.911 21.3359 384.001V128.001Z" fill="url(#paint1_linear_2198_34588)"/>
</mask>
<g mask="url(#mask0_2198_34588)">
<path d="M433.794 273.779H333.218C332.714 270.268 332.03 266.814 331.168 263.43L371.523 246.715C378.779 243.71 382.225 235.389 379.22 228.132C376.215 220.875 367.893 217.43 360.637 220.435L320.248 237.165C318.444 234.142 316.49 231.218 314.386 228.411L385.532 157.266C391.086 151.712 391.086 142.707 385.532 137.153C379.978 131.599 370.973 131.599 365.418 137.153L294.273 208.298C291.467 206.194 288.543 204.24 285.519 202.437L302.249 162.047C305.255 154.79 301.808 146.471 294.552 143.465C287.292 140.459 278.976 143.905 275.969 151.162L259.254 191.517C255.87 190.654 252.417 189.97 248.905 189.466V88.8902C248.905 81.0357 242.538 74.668 234.683 74.668C226.829 74.668 220.461 81.0357 220.461 88.8902V189.466C216.95 189.97 213.496 190.654 210.112 191.517L193.397 151.162C190.391 143.905 182.072 140.46 174.814 143.465C167.558 146.47 164.111 154.79 167.117 162.047L183.847 202.437C180.824 204.24 177.899 206.194 175.093 208.298L103.948 137.153C98.3944 131.599 89.3889 131.599 83.8346 137.153C78.2804 142.707 78.2804 151.712 83.8346 157.266L154.98 228.411C152.876 231.218 150.923 234.142 149.118 237.165L108.729 220.435C101.471 217.432 93.1521 220.875 90.1464 228.132C87.1408 235.389 90.5873 243.709 97.8435 246.715L138.199 263.43C136.195 271.292 135.128 279.525 135.128 288.001C135.128 296.478 136.195 304.711 138.199 312.573L97.8435 329.287C90.5873 332.293 87.1408 340.613 90.1464 347.87C92.4153 353.348 97.7108 356.654 103.292 356.654C105.105 356.654 106.949 356.305 108.728 355.567L149.117 338.837C150.921 341.861 152.875 344.785 154.979 347.591L83.8337 418.737C78.2794 424.291 78.2794 433.296 83.8337 438.85C86.6108 441.627 90.2507 443.016 93.8897 443.016C97.5287 443.016 101.17 441.628 103.946 438.85L175.091 367.705C177.898 369.808 180.822 371.763 183.845 373.566L167.115 413.955C164.11 421.212 167.556 429.531 174.812 432.538C176.593 433.275 178.435 433.625 180.249 433.625C185.83 433.625 191.126 430.318 193.394 424.841L210.109 384.486C213.493 385.349 216.946 386.032 220.458 386.537V487.112C220.458 494.967 226.826 501.335 234.68 501.335C242.535 501.335 248.902 494.967 248.902 487.112V386.537C252.413 386.032 255.868 385.349 259.251 384.486L275.966 424.841C278.235 430.318 283.531 433.625 289.111 433.625C290.925 433.625 292.769 433.276 294.548 432.538C301.804 429.532 305.251 421.212 302.245 413.955L285.515 373.566C288.539 371.763 291.463 369.808 294.269 367.705L365.415 438.85C368.192 441.627 371.832 443.016 375.471 443.016C379.11 443.016 382.751 441.628 385.527 438.85C391.081 433.296 391.081 424.291 385.527 418.737L314.382 347.591C316.485 344.785 318.439 341.861 320.243 338.837L360.632 355.567C362.413 356.304 364.255 356.654 366.069 356.654C371.65 356.654 376.946 353.348 379.214 347.87C382.22 340.613 378.773 332.294 371.517 329.287L331.162 312.573C332.025 309.189 332.708 305.735 333.213 302.224H433.794C441.649 302.224 448.016 295.856 448.016 288.001C448.016 280.147 441.649 273.779 433.794 273.779Z" fill="url(#paint2_linear_2198_34588)"/>
</g>
<defs>
<linearGradient id="paint0_linear_2198_34588" x1="255.999" y1="490.667" x2="255.999" y2="21.3339" gradientUnits="userSpaceOnUse">
<stop stop-color="#FF7000"/>
<stop offset="1" stop-color="#FFE37E"/>
</linearGradient>
<linearGradient id="paint1_linear_2198_34588" x1="256.003" y1="490.667" x2="256.003" y2="21.3339" gradientUnits="userSpaceOnUse">
<stop stop-color="#FF7000"/>
<stop offset="1" stop-color="#FFE37E"/>
</linearGradient>
<linearGradient id="paint2_linear_2198_34588" x1="263.842" y1="501.335" x2="263.842" y2="74.668" gradientUnits="userSpaceOnUse">
<stop stop-color="#FFE37E"/>
<stop offset="1" stop-color="#FFF9E0"/>
</linearGradient>
</defs>
</svg>
