<svg width="512" height="512" viewBox="0 0 512 512" fill="none" xmlns="http://www.w3.org/2000/svg">
<rect x="21.332" y="21.334" width="469.333" height="469.333" rx="106.667" fill="url(#paint0_linear_2198_34568)"/>
<mask id="mask0_2198_34568" style="mask-type:alpha" maskUnits="userSpaceOnUse" x="21" y="21" width="470" height="470">
<rect x="21.3359" y="21.334" width="469.333" height="469.333" rx="106.667" fill="url(#paint1_linear_2198_34568)"/>
</mask>
<g mask="url(#mask0_2198_34568)">
<path d="M474.829 457.01C464.726 457.01 456.551 465.185 456.551 475.288V566.68H346.885V475.288C346.885 465.185 338.71 457.01 328.608 457.01C318.505 457.01 310.33 465.185 310.33 475.288V694.628C310.33 704.731 318.505 712.907 328.608 712.907C338.71 712.907 346.885 704.731 346.885 694.628V603.237H456.551V694.628C456.551 704.731 464.726 712.907 474.829 712.907C484.932 712.907 493.107 704.731 493.107 694.628V475.288C493.107 465.185 484.932 457.01 474.829 457.01ZM310.33 255.948C310.33 245.845 302.155 237.67 292.052 237.67H218.942C208.839 237.67 200.664 245.845 200.664 255.948V292.505C200.664 316.303 215.99 336.402 237.219 343.973V402.175C237.219 412.278 245.394 420.453 255.497 420.453C265.6 420.453 273.775 412.278 273.775 402.175V343.973C295.004 336.402 310.33 316.303 310.33 292.505V255.948ZM365.163 420.453H438.274C448.376 420.453 456.551 412.278 456.551 402.175V329.062C456.551 303 445.663 283.044 436.024 265.445C427.422 249.701 419.996 236.099 419.996 219.392V146.278C419.996 136.175 411.821 128 401.718 128C391.616 128 383.441 136.175 383.441 146.278V219.392C383.441 236.099 376.015 249.701 367.412 265.445C357.774 283.044 346.885 303 346.885 329.062V402.175C346.885 412.278 355.06 420.453 365.163 420.453ZM584.495 237.67H511.384C501.282 237.67 493.107 245.845 493.107 255.948V292.505C493.107 316.303 508.433 336.402 529.662 343.973V402.175C529.662 412.278 537.837 420.453 547.94 420.453C558.042 420.453 566.217 412.278 566.217 402.175V343.973C587.446 336.402 602.773 316.303 602.773 292.505V255.948C602.773 245.845 594.598 237.67 584.495 237.67Z" fill="url(#paint2_linear_2198_34568)"/>
<path d="M239.897 530.131H254.163C264.266 530.131 272.441 521.956 272.441 511.853C272.441 501.75 264.266 493.574 254.163 493.574H126.219V329.069C126.219 318.966 118.044 310.791 107.942 310.791C97.8391 310.791 89.6641 318.966 89.6641 329.069V694.636C89.6641 704.739 97.8391 712.914 107.942 712.914C118.044 712.914 126.219 704.739 126.219 694.636V603.244H217.251L236.242 698.206C238.297 708.435 248.284 714.562 257.733 712.557C267.658 710.594 274.083 700.955 272.084 691.066L239.897 530.131ZM695.264 310.791C685.161 310.791 676.986 318.966 676.986 329.069V493.574H549.043C538.94 493.574 530.765 501.75 530.765 511.853C530.765 521.956 538.94 530.131 549.043 530.131H563.309L531.122 691.066C529.122 700.954 535.549 710.593 545.472 712.557C554.909 714.559 564.906 708.448 566.963 698.206L585.955 603.244H676.986V694.636C676.986 704.739 685.161 712.914 695.264 712.914C705.367 712.914 713.542 704.739 713.542 694.636V329.069C713.542 318.966 705.367 310.791 695.264 310.791ZM547.682 442.952L559.062 420.461H620.935C631.037 420.461 639.212 412.286 639.212 402.183C639.212 392.08 631.037 383.904 620.935 383.904H182.271C172.168 383.904 163.993 392.08 163.993 402.183C163.993 412.286 172.168 420.461 182.271 420.461H244.143L255.489 442.88C271.089 474.153 302.432 493.574 337.274 493.574H465.932C500.774 493.574 532.116 474.154 547.682 442.952Z" fill="url(#paint3_linear_2198_34568)"/>
</g>
<defs>
<linearGradient id="paint0_linear_2198_34568" x1="255.999" y1="490.667" x2="255.999" y2="21.334" gradientUnits="userSpaceOnUse">
<stop stop-color="#AE44F3"/>
<stop offset="1" stop-color="#E3C0FA"/>
</linearGradient>
<linearGradient id="paint1_linear_2198_34568" x1="256.003" y1="490.667" x2="256.003" y2="21.334" gradientUnits="userSpaceOnUse">
<stop stop-color="#F95943"/>
<stop offset="1" stop-color="#FFD2D6"/>
</linearGradient>
<linearGradient id="paint2_linear_2198_34568" x1="401.718" y1="712.907" x2="401.718" y2="128" gradientUnits="userSpaceOnUse">
<stop stop-color="#E3C0FA"/>
<stop offset="1" stop-color="#FFF1FF"/>
</linearGradient>
<linearGradient id="paint3_linear_2198_34568" x1="401.603" y1="712.936" x2="401.603" y2="310.791" gradientUnits="userSpaceOnUse">
<stop stop-color="#AE44F3"/>
<stop offset="1" stop-color="#E3C0FA"/>
</linearGradient>
</defs>
</svg>
