<svg width="512" height="512" viewBox="0 0 512 512" fill="none" xmlns="http://www.w3.org/2000/svg">
<path d="M21.332 128.001C21.332 69.0903 69.0883 21.334 127.999 21.334H383.999C442.909 21.334 490.665 69.0903 490.665 128.001V384.001C490.665 442.911 442.909 490.667 383.999 490.667H127.999C69.0883 490.667 21.332 442.911 21.332 384.001V128.001Z" fill="url(#paint0_linear_2198_34557)"/>
<mask id="mask0_2198_34557" style="mask-type:alpha" maskUnits="userSpaceOnUse" x="21" y="21" width="470" height="470">
<path d="M21.3359 128.001C21.3359 69.0903 69.0922 21.334 128.003 21.334H384.003C442.913 21.334 490.669 69.0903 490.669 128.001V384.001C490.669 442.911 442.913 490.667 384.003 490.667H128.003C69.0922 490.667 21.3359 442.911 21.3359 384.001V128.001Z" fill="url(#paint1_linear_2198_34557)"/>
</mask>
<g mask="url(#mask0_2198_34557)">
<path d="M608.982 331.831C606.075 320.851 599.295 311.165 590.253 305.029C592.19 294.049 590.253 282.749 584.764 273.062C578.952 263.375 570.234 256.27 559.577 252.396C558.932 243.033 555.381 233.991 548.922 226.564L578.305 190.722L520.183 210.095C518.892 209.772 517.923 209.448 516.631 209.448C513.079 198.793 505.651 190.075 495.965 184.586C486.602 178.771 474.976 176.834 463.998 178.771C457.863 169.731 448.5 162.949 437.52 160.368C426.863 157.461 415.563 158.43 405.23 163.273C396.835 156.008 385.856 152.375 374.877 152.375C363.899 152.375 352.92 156.008 344.525 163.273C334.192 158.43 322.891 157.138 312.557 160.045C301.578 162.95 291.892 169.732 285.755 178.772C274.778 177.158 263.475 178.772 253.788 184.263C244.101 190.075 236.996 198.793 233.122 209.448C221.823 210.097 211.49 214.941 203.741 223.013C195.668 230.763 190.823 241.416 190.18 252.396C179.523 255.948 170.805 263.376 165.315 272.739C159.503 282.426 157.566 293.729 159.503 305.029C150.461 311.164 143.681 320.527 141.098 331.507C137.223 344.745 139.805 359.277 148.2 370.9C151.108 375.421 156.273 378.005 161.44 378.005H588.316C593.484 378.005 598.649 375.421 601.556 370.9C609.952 359.277 612.534 344.746 608.982 331.831Z" fill="url(#paint2_linear_2198_34557)"/>
<path d="M634.604 345.713H115.809C106.885 345.713 99.6641 352.935 99.6641 361.859C99.6641 472.162 186.259 562.852 294.481 571.13V591.741C294.481 600.665 301.702 607.886 310.626 607.886H439.787C448.711 607.886 455.932 600.665 455.932 591.741V571.13C564.155 562.853 650.749 472.163 650.749 361.859C650.749 352.935 643.528 345.713 634.604 345.713ZM342.917 240.312C351.833 240.312 359.062 233.083 359.062 224.167C359.062 215.25 351.833 208.021 342.917 208.021C334 208.021 326.771 215.25 326.771 224.167C326.771 233.083 334 240.312 342.917 240.312ZM278.336 313.423C287.253 313.423 294.481 306.194 294.481 297.278C294.481 288.362 287.253 281.133 278.336 281.133C269.42 281.133 262.191 288.362 262.191 297.278C262.191 306.194 269.42 313.423 278.336 313.423Z" fill="url(#paint3_linear_2198_34557)"/>
<path d="M439.787 264.988C439.787 273.904 432.558 281.133 423.642 281.133C414.726 281.133 407.497 273.904 407.497 264.988C407.497 256.071 414.726 248.843 423.642 248.843C432.558 248.843 439.787 256.071 439.787 264.988Z" fill="url(#paint4_linear_2198_34557)"/>
</g>
<defs>
<linearGradient id="paint0_linear_2198_34557" x1="255.999" y1="490.667" x2="255.999" y2="21.334" gradientUnits="userSpaceOnUse">
<stop stop-color="#F95943"/>
<stop offset="1" stop-color="#FFD2D6"/>
</linearGradient>
<linearGradient id="paint1_linear_2198_34557" x1="256.003" y1="490.667" x2="256.003" y2="21.334" gradientUnits="userSpaceOnUse">
<stop stop-color="#F95943"/>
<stop offset="1" stop-color="#FFD2D6"/>
</linearGradient>
<linearGradient id="paint2_linear_2198_34557" x1="374.934" y1="378.006" x2="374.934" y2="152.377" gradientUnits="userSpaceOnUse">
<stop stop-color="#FFD2D6"/>
<stop offset="1" stop-color="#FFF6F7"/>
</linearGradient>
<linearGradient id="paint3_linear_2198_34557" x1="375.207" y1="607.882" x2="375.207" y2="56.7958" gradientUnits="userSpaceOnUse">
<stop stop-color="#FCA49C"/>
<stop offset="1" stop-color="#FFD2D6"/>
</linearGradient>
<linearGradient id="paint4_linear_2198_34557" x1="375.207" y1="607.882" x2="375.207" y2="56.7958" gradientUnits="userSpaceOnUse">
<stop stop-color="#FCA49C"/>
<stop offset="1" stop-color="#FFD2D6"/>
</linearGradient>
</defs>
</svg>
