<svg width="512" height="480" viewBox="0 0 512 480" fill="none" xmlns="http://www.w3.org/2000/svg">
<path d="M406.999 300C415.4 300 421.999 293.399 421.999 285V266.1L346.999 105L217.47 137.382C223.489 128.034 226.999 116.923 226.999 105C226.999 71.909 200.075 45 166.999 45C133.923 45 106.999 71.909 106.999 105C106.999 127.448 119.397 147.039 137.693 157.327L106.999 165L2.99805 360.3C8.99905 377.699 25.498 390 44.999 390H316.999C325.4 390 331.999 383.399 331.999 375C331.999 333.6 365.599 300 406.999 300ZM458.093 353.892L429.177 325.093C423.71 318.273 414.937 315.088 406.999 315.088C397.715 315.088 389.105 319.642 385.905 323.892L356.198 353.614C343.686 365.437 344.372 385.246 355.641 395.831C361.149 401.66 368.942 405 376.999 405C376.999 421.816 390.183 435 406.999 435C423.815 435 436.999 421.816 436.999 405C445.349 405 453.259 401.543 457.8 396.387C470.123 384.741 469.89 365.037 458.093 353.892Z" fill="url(#paint0_linear_593_5443)"/>
<path d="M328.715 149.626L422 266.1V45C422 20.147 401.853 0 377 0H45C20.147 0 0 20.147 0 45V345C0 350.4 0.901 355.499 2.999 360.3L125.289 209.665C131.291 202.149 142.715 202.144 148.723 209.655L191.287 262.859C197.292 270.365 208.708 270.365 214.713 262.859L305.293 149.633C311.296 142.129 322.708 142.126 328.715 149.626ZM167 150C142.099 150 122 129.899 122 105C122 80.099 142.099 60 167 60C191.901 60 212 80.099 212 105C212 129.899 191.901 150 167 150ZM407 270C349.1 270 302 317.1 302 375C302 432.9 349.1 480 407 480C464.9 480 512 432.9 512 375C512 317.1 464.9 270 407 270ZM447.499 385.499C442.103 391.499 431.899 391.501 426.5 385.499L421.999 381.299V405C421.999 413.399 415.4 420 406.999 420C398.598 420 391.999 413.399 391.999 405V381.299L387.498 385.499C381.798 391.499 372.2 391.499 366.499 385.499C360.499 379.799 360.499 370.199 366.499 364.499L396.499 334.499C400.963 328.917 412.63 328.412 417.498 334.499L447.498 364.499C453.5 370.199 453.5 379.799 447.499 385.499Z" fill="url(#paint1_linear_593_5443)"/>
<defs>
<linearGradient id="paint0_linear_593_5443" x1="234.995" y1="435" x2="234.995" y2="45" gradientUnits="userSpaceOnUse">
<stop stop-color="#FFC2CC"/>
<stop offset="1" stop-color="#FFF2F4"/>
</linearGradient>
<linearGradient id="paint1_linear_593_5443" x1="256" y1="480" x2="256" y2="0" gradientUnits="userSpaceOnUse">
<stop stop-color="#FD3A84"/>
<stop offset="1" stop-color="#FFA68D"/>
</linearGradient>
</defs>
</svg>
