<svg width="488" height="512" viewBox="0 0 488 512" fill="none" xmlns="http://www.w3.org/2000/svg">
<path d="M480.175 317.424C479.765 317.16 439.011 290.908 439.011 255.999C439.011 220.798 479.794 194.824 480.204 194.56C486.034 190.898 488.642 183.719 486.503 177.171C484.364 170.638 478.417 166.359 471.15 166.872C470.798 166.901 422.281 169.627 401.772 141.368C381.086 112.889 398.783 67.9018 398.988 67.4478C401.538 61.0755 399.427 53.751 393.861 49.7218C388.295 45.6786 380.706 45.9716 375.403 50.3368C375.051 50.6449 337.842 81.4226 304.266 70.524C270.778 59.6544 258.677 11.8497 258.56 11.3666C256.891 4.70227 250.885 0 244 0H243.971C237.085 0.0150008 231.079 4.71727 229.439 11.4116C229.322 11.8807 216.958 59.7434 183.733 70.525C150.186 81.3946 112.948 50.6459 112.596 50.3378C107.352 45.9286 99.7044 45.6206 94.1091 49.7228C88.5428 53.781 86.4327 61.1055 89.0408 67.4928C89.2168 67.9318 106.767 113.125 86.2277 141.369C65.5135 169.877 17.2298 166.858 16.7897 166.873C10.0804 166.404 3.60499 170.668 1.46687 177.23C-0.642248 183.793 1.9649 190.942 7.82423 194.575C8.23426 194.839 48.9886 221.091 48.9886 255.999C48.9886 291.201 8.20525 317.175 7.79523 317.439C1.9649 321.101 -0.643247 328.28 1.49587 334.828C3.63499 341.361 9.40632 345.64 16.8487 345.127C17.2588 345.186 65.7185 342.372 86.2277 370.631C106.913 399.11 89.2158 444.097 89.0108 444.551C86.4617 450.924 88.5718 458.248 94.1381 462.277C99.7044 466.349 107.323 466.056 112.596 461.662C112.948 461.354 150.215 430.547 183.733 441.475C217.221 452.345 229.322 500.149 229.439 500.632C231.109 507.298 237.115 512 244.001 512H244.03C250.915 511.985 256.921 507.283 258.561 500.588C258.678 500.119 271.042 452.257 304.267 441.475C337.814 430.517 375.052 461.354 375.404 461.662C380.648 466.057 388.266 466.379 393.891 462.277C399.457 458.219 401.568 450.895 398.959 444.507C398.783 444.068 381.233 398.875 401.773 370.631C422.487 342.108 470.653 345.083 471.21 345.127C478.272 345.889 484.424 341.332 486.533 334.77C488.642 328.208 486.035 321.057 480.175 317.424Z" fill="url(#paint0_linear_528_6269)"/>
<path d="M244 391.007C318.562 391.007 379.007 330.562 379.007 256C379.007 181.437 318.562 120.992 244 120.992C169.437 120.992 108.992 181.437 108.992 256C108.992 330.562 169.437 391.007 244 391.007Z" fill="url(#paint1_linear_528_6269)"/>
<defs>
<linearGradient id="paint0_linear_528_6269" x1="244" y1="512" x2="244" y2="0" gradientUnits="userSpaceOnUse">
<stop stop-color="#FFE59A"/>
<stop offset="1" stop-color="#FFFFD5"/>
</linearGradient>
<linearGradient id="paint1_linear_528_6269" x1="244" y1="391.007" x2="244" y2="120.992" gradientUnits="userSpaceOnUse">
<stop stop-color="#FD5900"/>
<stop offset="1" stop-color="#FFDE00"/>
</linearGradient>
</defs>
</svg>
