<svg width="512" height="512" viewBox="0 0 512 512" fill="none" xmlns="http://www.w3.org/2000/svg">
<path d="M376 0H361C317.815 0 280.218 23.13 259.078 57.444C241.655 23.515 206.688 0 166 0C157.709 0 151 6.709 151 15C151 23.291 157.709 30 166 30C207.367 30 241 63.647 241 105V197C241 205.291 247.709 212 256 212C264.291 212 271 205.291 271 197V135C337.182 135 391 81.167 391 15C391 6.709 384.291 0 376 0Z" fill="url(#paint0_linear_528_6240)"/>
<path d="M364.398 159.515C326.136 145.789 283.832 152.645 256 175.833C228.168 152.63 185.834 145.789 147.602 159.515C93.373 178.938 61 232.2 61 302C61 413.87 128.09 512 204.584 512C226.41 512 243.08 501.248 256 488.914C268.92 501.248 285.59 512 307.416 512C383.91 512 451 413.87 451 302C451 232.2 418.627 178.938 364.398 159.515Z" fill="url(#paint1_linear_528_6240)"/>
<defs>
<linearGradient id="paint0_linear_528_6240" x1="271" y1="212" x2="271" y2="0" gradientUnits="userSpaceOnUse">
<stop stop-color="#FFC2CC"/>
<stop offset="1" stop-color="#FFF2F4"/>
</linearGradient>
<linearGradient id="paint1_linear_528_6240" x1="256" y1="512" x2="256" y2="152.48" gradientUnits="userSpaceOnUse">
<stop stop-color="#FD3A84"/>
<stop offset="1" stop-color="#FFA68D"/>
</linearGradient>
</defs>
</svg>
