<svg width="512" height="512" viewBox="0 0 512 512" fill="none" xmlns="http://www.w3.org/2000/svg">
<path d="M94.0908 175.055C98.7048 168.17 96.8738 158.854 90.0038 154.24L65.1018 137.526C58.1728 132.912 48.9008 134.743 44.2868 141.613C39.6728 148.498 41.5038 157.814 48.3738 162.428L73.2758 179.142C80.1978 183.784 89.5098 181.892 94.0908 175.055ZM364.691 121.838C371.613 126.479 380.926 124.587 385.506 117.751L402.22 92.8488C406.834 85.9638 405.003 76.6478 398.133 72.0338C391.219 67.4198 381.903 69.2648 377.318 76.1208L360.604 101.023C355.99 107.907 357.821 117.223 364.691 121.838ZM127.958 116.638C132.503 123.513 141.764 125.474 148.744 120.901C155.658 116.345 157.562 107.044 153.007 100.115L136.498 75.0658C131.942 68.1808 122.699 66.2768 115.712 70.8028C108.798 75.3588 106.894 84.6598 111.449 91.5888L127.958 116.638ZM468.944 143.459C464.403 136.574 455.131 134.67 448.158 139.196L423.109 155.705C416.195 160.261 414.291 169.562 418.846 176.491C423.391 183.366 432.652 185.327 439.632 180.754L464.681 164.245C471.596 159.689 473.5 150.388 468.944 143.459ZM493.803 319.489L464.462 313.19C456.259 311.432 448.393 316.603 446.649 324.704C444.905 332.805 450.062 340.773 458.163 342.517L487.504 348.816C495.424 350.552 503.553 345.522 505.317 337.302C507.06 329.201 501.903 321.232 493.803 319.489ZM53.8368 224.977L24.4958 218.678C16.3218 216.876 8.41176 222.106 6.68276 230.192C4.93976 238.293 10.0958 246.261 18.1968 248.005L47.5378 254.304C55.4578 256.04 63.5868 251.01 65.3498 242.79C67.0938 234.689 61.9378 226.721 53.8368 224.977ZM296.957 93.0968C304.877 94.8328 313.006 89.8028 314.77 81.5828L321.069 52.2418C322.812 44.1408 317.656 36.1728 309.555 34.4288C301.323 32.5828 293.486 37.8568 291.742 45.9428L285.443 75.2838C283.7 83.3858 288.856 91.3538 296.957 93.0968ZM200.761 80.5878C202.36 88.7178 210.237 93.9898 218.383 92.4088C226.498 90.8118 231.801 82.9168 230.204 74.7868L224.418 45.3578C222.821 37.2428 214.955 31.9398 206.796 33.5368C198.681 35.1338 193.378 43.0288 194.975 51.1588L200.761 80.5878ZM47.0398 309.543L17.6108 315.329C9.49576 316.926 4.19276 324.821 5.78976 332.951C7.38876 341.081 15.2658 346.353 23.4118 344.772L52.8408 338.986C60.9558 337.389 66.2588 329.494 64.6618 321.364C63.0648 313.249 55.2868 307.917 47.0398 309.543ZM447.338 246.13C448.937 254.26 456.814 259.532 464.96 257.951L494.389 252.165C502.504 250.568 507.807 242.673 506.21 234.543C504.613 226.413 496.82 221.081 488.588 222.722L459.159 228.508C451.044 230.104 445.741 238 447.338 246.13ZM256 118.747C165.019 118.747 90.9998 192.766 90.9998 283.747C90.9998 359.635 141.162 418.747 196 418.747C220.346 418.747 243.109 403.967 256 393.698C268.891 403.967 291.654 418.747 316 418.747C370.74 418.747 421 360.714 421 283.747C421 192.765 346.981 118.747 256 118.747Z" fill="url(#paint0_linear_528_6347)"/>
<path d="M502.757 359.903C497.205 357.647 490.731 358.848 486.409 363.126C479.231 370.245 455.35 388.746 436 388.746C416.65 388.746 393.769 370.245 386.591 363.126C380.732 357.296 371.269 357.296 365.409 363.126C358.231 370.245 335.35 388.746 316 388.746C296.65 388.746 273.769 370.245 266.591 363.126C260.732 357.296 251.269 357.296 245.409 363.126C238.231 370.245 215.35 388.746 196 388.746C176.65 388.746 153.769 370.245 146.591 363.126C140.732 357.296 131.269 357.296 125.409 363.126C118.231 370.245 95.35 388.746 76 388.746C56.65 388.746 32.769 370.245 25.591 363.126C21.27 358.834 14.795 357.604 9.243 359.903C3.647 362.232 0 367.696 0 373.746V463.746C0 472.037 6.709 478.746 15 478.746H497C505.291 478.746 512 472.037 512 463.746V373.746C512 367.696 508.353 362.232 502.757 359.903Z" fill="url(#paint1_linear_528_6347)"/>
<defs>
<linearGradient id="paint0_linear_528_6347" x1="256" y1="418.747" x2="256" y2="33.2528" gradientUnits="userSpaceOnUse">
<stop stop-color="#FD5900"/>
<stop offset="1" stop-color="#FFDE00"/>
</linearGradient>
<linearGradient id="paint1_linear_528_6347" x1="256" y1="478.746" x2="256" y2="358.753" gradientUnits="userSpaceOnUse">
<stop stop-color="#FFE59A"/>
<stop offset="1" stop-color="#FFFFD5"/>
</linearGradient>
</defs>
</svg>
