<svg width="512" height="512" viewBox="0 0 512 512" fill="none" xmlns="http://www.w3.org/2000/svg">
<path d="M316 0H136C111.186 0 91 20.186 91 45V166C91 174.291 97.709 181 106 181H256C264.276 181 271 187.724 271 196V256C271 264.276 264.276 271 256 271H226C217.709 271 211 277.709 211 286V309.789L176.605 275.394C173.793 272.582 169.984 271 166 271H106C97.709 271 91 277.709 91 286V467C91 491.814 111.186 512 136 512H316C340.814 512 361 491.814 361 467V45C361 20.186 340.814 0 316 0ZM436 121C411.098 121 391 141.099 391 166V196L436 226L481 196V166C481 141.099 460.902 121 436 121ZM226 256C242.553 256 256 242.538 256 226C256 209.462 242.553 196 226 196C209.447 196 196 209.462 196 226C196 242.538 209.447 256 226 256ZM166 256C182.553 256 196 242.538 196 226C196 209.462 182.553 196 166 196C149.447 196 136 209.462 136 226C136 242.538 149.447 256 166 256ZM136 226C136 209.462 122.553 196 106 196C89.447 196 76 209.462 76 226C76 242.538 89.447 256 106 256C122.553 256 136 242.538 136 226Z" fill="url(#paint0_linear_2133_30795)"/>
<path d="M211 90H241C249.291 90 256 83.291 256 75C256 66.709 249.291 60 241 60H211C202.709 60 196 66.709 196 75C196 83.291 202.709 90 211 90ZM241 422H211C202.709 422 196 428.709 196 437C196 445.291 202.709 452 211 452H241C249.291 452 256 445.291 256 437C256 428.709 249.291 422 241 422ZM256 151H76C51.186 151 31 171.186 31 196V256C31 280.814 51.186 301 76 301H159.789L215.394 356.605C219.718 360.929 226.209 362.166 231.742 359.857C237.352 357.543 241 352.064 241 346V301H256C280.814 301 301 280.814 301 256V196C301 171.186 280.814 151 256 151ZM106 241C97.716 241 91 234.284 91 226C91 217.716 97.716 211 106 211C114.284 211 121 217.716 121 226C121 234.284 114.284 241 106 241ZM166 241C157.716 241 151 234.284 151 226C151 217.716 157.716 211 166 211C174.284 211 181 217.716 181 226C181 234.284 174.284 241 166 241ZM226 241C217.716 241 211 234.284 211 226C211 217.716 217.716 211 226 211C234.284 211 241 217.716 241 226C241 234.284 234.284 241 226 241ZM391 196V423.701C391 454.6 403.598 484.6 425.501 506.499C428.2 509.5 432.1 511 436 511C439.9 511 443.8 509.5 446.499 506.499C468.402 484.6 481 454.6 481 423.701V196H391Z" fill="url(#paint1_linear_2133_30795)"/>
<defs>
<linearGradient id="paint0_linear_2133_30795" x1="278.5" y1="256" x2="279" y2="5.01516e-06" gradientUnits="userSpaceOnUse">
<stop stop-color="#FA7B6A"/>
<stop offset="0.521705" stop-color="#FCA49C"/>
<stop offset="1" stop-color="#FFE0E4"/>
</linearGradient>
<linearGradient id="paint1_linear_2133_30795" x1="256" y1="511" x2="256" y2="60" gradientUnits="userSpaceOnUse">
<stop stop-color="#FFD2D6"/>
<stop offset="1" stop-color="#FFEDEF"/>
</linearGradient>
</defs>
</svg>
