<svg width="512" height="512" viewBox="0 0 512 512" fill="none" xmlns="http://www.w3.org/2000/svg">
<g clip-path="url(#clip0_2133_30804)">
<path d="M256 0C114.615 0 0 114.615 0 256C0 397.385 114.615 512 256 512C397.385 512 512 397.385 512 256C512 114.615 397.385 0 256 0Z" fill="url(#paint0_linear_2133_30804)"/>
<path d="M210.429 134.365C208.164 142.334 199.868 146.958 191.9 144.693C183.276 142.242 174.563 141 166 141C150.933 141 136.414 144.529 122.847 151.489C115.476 155.271 106.436 152.361 102.654 144.99C98.873 137.619 101.782 128.579 109.153 124.797C126.998 115.643 146.124 111 166 111C177.337 111 188.81 112.627 200.101 115.836C208.069 118.101 212.693 126.396 210.429 134.365ZM211 216C211 191.187 190.813 171 166 171C141.187 171 121 191.187 121 216C121 240.813 141.187 261 166 261C190.813 261 211 240.813 211 216ZM405.584 162.008C400.564 173.497 392.471 183.005 382.524 189.76C387.85 197.153 391 206.213 391 216C391 240.813 370.813 261 346 261C321.187 261 301 240.813 301 216C301 210.741 301.915 205.695 303.58 201H286C277.716 201 271 194.284 271 186C271 177.716 277.716 171 286 171H346C359.921 171 372.519 162.756 378.094 149.996C381.411 142.405 390.255 138.939 397.845 142.257C405.437 145.574 408.901 154.417 405.584 162.008ZM329.595 324.318C312.118 286.838 267.407 270.565 229.926 288.041C222.418 291.542 219.17 300.466 222.671 307.974L222.672 307.975C226.173 315.483 235.097 318.731 242.605 315.23H242.606C265.093 304.743 291.921 314.508 302.407 336.996C305.908 344.504 314.832 347.753 322.341 344.252C329.85 340.751 333.096 331.827 329.595 324.318ZM148.269 478.362L163.229 426H232.5C253.211 426 270 409.211 270 388.5C270 367.789 253.211 351 232.5 351H125V311C125 283.386 102.614 261 75 261C67.667 261 61.409 266.301 60.204 273.534L52.602 319.146C49.534 337.555 33.795 350.929 15.148 351C6.818 351.031 0 357.592 0 365.921V496C0 504.284 6.716 511 15 511H105C125.092 511 142.749 497.681 148.269 478.362Z" fill="url(#paint1_linear_2133_30804)"/>
</g>
<defs>
<linearGradient id="paint0_linear_2133_30804" x1="256" y1="512" x2="256" y2="0" gradientUnits="userSpaceOnUse">
<stop stop-color="#FF7000"/>
<stop offset="1" stop-color="#FFE37E"/>
</linearGradient>
<linearGradient id="paint1_linear_2133_30804" x1="203.421" y1="511" x2="203.421" y2="111" gradientUnits="userSpaceOnUse">
<stop stop-color="#FFE37E"/>
<stop offset="1" stop-color="#FFF9E0"/>
</linearGradient>
<clipPath id="clip0_2133_30804">
<rect width="512" height="512" fill="white"/>
</clipPath>
</defs>
</svg>
