<svg width="15" height="14" viewBox="0 0 15 14" fill="none" xmlns="http://www.w3.org/2000/svg">
<path d="M6.91667 11.6667C6.91667 11.8214 6.97812 11.9697 7.08752 12.0791C7.19692 12.1885 7.34529 12.25 7.5 12.25C7.65471 12.25 7.80308 12.1885 7.91248 12.0791C8.02187 11.9697 8.08333 11.8214 8.08333 11.6667V7.58333H12.1667C12.3214 7.58333 12.4697 7.52187 12.5791 7.41248C12.6885 7.30308 12.75 7.15471 12.75 7C12.75 6.84529 12.6885 6.69692 12.5791 6.58752C12.4697 6.47812 12.3214 6.41667 12.1667 6.41667H8.08333V2.33333C8.08333 2.17862 8.02187 2.03025 7.91248 1.92085C7.80308 1.81146 7.65471 1.75 7.5 1.75C7.34529 1.75 7.19692 1.81146 7.08752 1.92085C6.97812 2.03025 6.91667 2.17862 6.91667 2.33333V6.41667H2.83333C2.67862 6.41667 2.53025 6.47812 2.42085 6.58752C2.31146 6.69692 2.25 6.84529 2.25 7C2.25 7.15471 2.31146 7.30308 2.42085 7.41248C2.53025 7.52187 2.67862 7.58333 2.83333 7.58333H6.91667V11.6667Z" fill="white"/>
</svg>
