<svg width="19" height="18" viewBox="0 0 19 18" fill="none" xmlns="http://www.w3.org/2000/svg">
<path d="M8.75 15C8.75 15.1989 8.82902 15.3897 8.96967 15.5303C9.11032 15.671 9.30109 15.75 9.5 15.75C9.69891 15.75 9.88968 15.671 10.0303 15.5303C10.171 15.3897 10.25 15.1989 10.25 15V9.75H15.5C15.6989 9.75 15.8897 9.67098 16.0303 9.53033C16.171 9.38968 16.25 9.19891 16.25 9C16.25 8.80109 16.171 8.61032 16.0303 8.46967C15.8897 8.32902 15.6989 8.25 15.5 8.25H10.25V3C10.25 2.80109 10.171 2.61032 10.0303 2.46967C9.88968 2.32902 9.69891 2.25 9.5 2.25C9.30109 2.25 9.11032 2.32902 8.96967 2.46967C8.82902 2.61032 8.75 2.80109 8.75 3V8.25H3.5C3.30109 8.25 3.11032 8.32902 2.96967 8.46967C2.82902 8.61032 2.75 8.80109 2.75 9C2.75 9.19891 2.82902 9.38968 2.96967 9.53033C3.11032 9.67098 3.30109 9.75 3.5 9.75H8.75V15Z" fill="#717171"/>
</svg>
