<svg width="23" height="22" viewBox="0 0 23 22" fill="none" xmlns="http://www.w3.org/2000/svg">
<path d="M18.8342 2.74967C19.3204 2.74967 19.7867 2.94283 20.1306 3.28665C20.4744 3.63046 20.6675 4.09678 20.6675 4.58301V17.4163C20.6675 17.9026 20.4744 18.3689 20.1306 18.7127C19.7867 19.0565 19.3204 19.2497 18.8342 19.2497H4.16753C3.6813 19.2497 3.21499 19.0565 2.87117 18.7127C2.52735 18.3689 2.3342 17.9026 2.3342 17.4163V11.9163C2.3342 11.6732 2.43078 11.4401 2.60268 11.2682C2.77459 11.0963 3.00775 10.9997 3.25087 10.9997C3.49398 10.9997 3.72714 11.0963 3.89905 11.2682C4.07096 11.4401 4.16753 11.6732 4.16753 11.9163V13.8413L8.74628 9.26351C8.85269 9.15707 8.97902 9.07265 9.11805 9.01504C9.25709 8.95744 9.40612 8.92779 9.55661 8.92779C9.70711 8.92779 9.85614 8.95744 9.99518 9.01504C10.1342 9.07265 10.2605 9.15707 10.3669 9.26351L14.0932 12.9907L15.228 11.8558C15.3344 11.7494 15.4608 11.665 15.5998 11.6074C15.7388 11.5498 15.8879 11.5201 16.0384 11.5201C16.1889 11.5201 16.3379 11.5498 16.4769 11.6074C16.616 11.665 16.7423 11.7494 16.8487 11.8558L18.8342 13.8423V4.58301H11.5009C11.2578 4.58301 11.0246 4.48643 10.8527 4.31452C10.6808 4.14261 10.5842 3.90946 10.5842 3.66634C10.5842 3.42323 10.6808 3.19007 10.8527 3.01816C11.0246 2.84625 11.2578 2.74967 11.5009 2.74967H18.8342ZM5.0842 1.83301C5.25569 1.83301 5.42374 1.88111 5.56925 1.97186C5.71477 2.0626 5.83191 2.19234 5.90737 2.34634L5.95137 2.45359L6.07053 2.80009C6.1963 3.16876 6.39895 3.5065 6.66508 3.79096C6.9312 4.07541 7.25471 4.30008 7.6142 4.45009L7.78378 4.51426L8.13028 4.63251C8.30182 4.69115 8.45213 4.79934 8.56218 4.9434C8.67224 5.08746 8.73711 5.26092 8.74859 5.44185C8.76007 5.62277 8.71764 5.80304 8.62668 5.95985C8.53571 6.11667 8.40029 6.24299 8.23753 6.32284L8.13028 6.36684L7.78378 6.48601C7.41511 6.61178 7.07737 6.81443 6.79292 7.08055C6.50847 7.34667 6.28379 7.67019 6.13378 8.02967L6.06962 8.19926L5.95137 8.54576C5.89272 8.7173 5.78453 8.8676 5.64047 8.97766C5.49641 9.08772 5.32295 9.15258 5.14203 9.16406C4.9611 9.17554 4.78084 9.13312 4.62402 9.04215C4.46721 8.95118 4.34089 8.81576 4.26103 8.65301L4.21703 8.54576L4.09787 8.19926C3.9721 7.83059 3.76944 7.49285 3.50332 7.20839C3.2372 6.92394 2.91368 6.69927 2.5542 6.54926L2.38462 6.48509L2.03812 6.36684C1.86657 6.3082 1.71627 6.20001 1.60621 6.05595C1.49616 5.91189 1.43129 5.73843 1.41981 5.5575C1.40833 5.37658 1.45076 5.19631 1.54172 5.0395C1.63269 4.88268 1.76811 4.75636 1.93087 4.67651L2.03812 4.63251L2.38462 4.51334C2.75328 4.38757 3.09103 4.18492 3.37548 3.9188C3.65993 3.65268 3.8846 3.32916 4.03462 2.96967L4.09878 2.80009L4.21703 2.45359C4.27879 2.27263 4.3956 2.11551 4.55109 2.00423C4.70659 1.89295 4.89299 1.83308 5.0842 1.83301ZM14.7092 6.41634C15.0739 6.41634 15.4236 6.56121 15.6815 6.81907C15.9393 7.07693 16.0842 7.42667 16.0842 7.79134C16.0842 8.15601 15.9393 8.50575 15.6815 8.76361C15.4236 9.02148 15.0739 9.16634 14.7092 9.16634C14.3445 9.16634 13.9948 9.02148 13.7369 8.76361C13.4791 8.50575 13.3342 8.15601 13.3342 7.79134C13.3342 7.42667 13.4791 7.07693 13.7369 6.81907C13.9948 6.56121 14.3445 6.41634 14.7092 6.41634Z" fill="#2F2F2F"/>
</svg>
