<svg width="23" height="22" viewBox="0 0 23 22" fill="none" xmlns="http://www.w3.org/2000/svg">
<path d="M18.8334 2.75C19.2959 2.74985 19.7414 2.92454 20.0805 3.23904C20.4197 3.55354 20.6274 3.98461 20.6621 4.44583L20.6667 4.58333V17.4167C20.6669 17.8792 20.4922 18.3247 20.1777 18.6638C19.8632 19.003 19.4321 19.2107 18.9709 19.2454L18.8334 19.25H4.16671C3.70418 19.2501 3.25869 19.0755 2.91954 18.761C2.58039 18.4465 2.37265 18.0154 2.33796 17.5542L2.33337 17.4167V4.58333C2.33323 4.12081 2.50791 3.67531 2.82241 3.33616C3.13691 2.99701 3.56798 2.78927 4.02921 2.75458L4.16671 2.75H18.8334ZM9.55579 11.0458L4.37021 16.2314C4.30989 16.292 4.24139 16.3438 4.16671 16.3854V17.4167H18.8334V16.3854C18.7587 16.3438 18.6902 16.292 18.6299 16.2314L16.0375 13.64L15.3895 14.2881L15.5792 14.4778C15.6643 14.563 15.7318 14.6641 15.7779 14.7754C15.8239 14.8866 15.8476 15.0058 15.8475 15.1262C15.8475 15.2466 15.8237 15.3659 15.7776 15.4771C15.7315 15.5883 15.6639 15.6894 15.5787 15.7745C15.4936 15.8596 15.3925 15.9271 15.2812 15.9731C15.17 16.0191 15.0507 16.0428 14.9303 16.0428C14.8099 16.0427 14.6907 16.019 14.5795 15.9729C14.4683 15.9267 14.3672 15.8592 14.2821 15.774L9.55671 11.0458H9.55579ZM18.8334 4.58333H4.16671V13.8417L8.74546 9.26383C8.94505 9.06429 9.21127 8.94543 9.49309 8.93004C9.7749 8.91464 10.0525 9.0038 10.2726 9.18042L10.3652 9.26292L14.0924 12.991L15.2272 11.8562C15.4268 11.6566 15.693 11.5378 15.9748 11.5224C16.2567 11.507 16.5342 11.5961 16.7544 11.7728L16.8479 11.8562L18.8334 13.8426V4.58333ZM14.7084 6.41667C15.073 6.41667 15.4228 6.56153 15.6806 6.81939C15.9385 7.07726 16.0834 7.42699 16.0834 7.79167C16.0834 8.15634 15.9385 8.50608 15.6806 8.76394C15.4228 9.0218 15.073 9.16667 14.7084 9.16667C14.3437 9.16667 13.994 9.0218 13.7361 8.76394C13.4782 8.50608 13.3334 8.15634 13.3334 7.79167C13.3334 7.42699 13.4782 7.07726 13.7361 6.81939C13.994 6.56153 14.3437 6.41667 14.7084 6.41667Z" fill="#868686"/>
</svg>
