<svg width="40" height="40" viewBox="0 0 40 40" fill="none" xmlns="http://www.w3.org/2000/svg">
<path fill-rule="evenodd" clip-rule="evenodd" d="M16.6024 20.6483C16.4305 20.4764 16.334 20.2433 16.334 20.0002C16.334 19.7572 16.4305 19.5241 16.6024 19.3521L21.788 14.1666C21.8725 14.079 21.9737 14.0092 22.0855 13.9611C22.1973 13.9131 22.3176 13.8878 22.4393 13.8868C22.5611 13.8857 22.6818 13.9089 22.7944 13.955C22.9071 14.0011 23.0094 14.0691 23.0955 14.1552C23.1816 14.2413 23.2496 14.3436 23.2957 14.4563C23.3418 14.5689 23.365 14.6896 23.3639 14.8114C23.3629 14.9331 23.3376 15.0533 23.2895 15.1652C23.2415 15.277 23.1717 15.3782 23.0841 15.4627L18.5466 20.0002L23.0841 24.5377C23.2511 24.7106 23.3435 24.9422 23.3414 25.1825C23.3393 25.4229 23.2429 25.6528 23.073 25.8227C22.903 25.9927 22.6731 26.0891 22.4327 26.0912C22.1924 26.0933 21.9608 26.0009 21.788 25.8339L16.6024 20.6483Z" fill="#9C9C9C"/>
</svg>
