<svg width="23" height="22" viewBox="0 0 23 22" fill="none" xmlns="http://www.w3.org/2000/svg">
<path d="M12.0835 2.75C12.546 2.74985 12.9915 2.92454 13.3306 3.23904C13.6698 3.55354 13.8775 3.98461 13.9122 4.44583L13.9168 4.58333V19.25H8.41679V4.58333C8.41664 4.12081 8.59133 3.67531 8.90583 3.33616C9.22033 2.99701 9.6514 2.78927 10.1126 2.75458L10.2501 2.75H12.0835ZM18.5001 7.33333C18.9864 7.33333 19.4527 7.52649 19.7965 7.8703C20.1403 8.21412 20.3335 8.68044 20.3335 9.16667V17.4167C20.3335 17.9029 20.1403 18.3692 19.7965 18.713C19.4527 19.0568 18.9864 19.25 18.5001 19.25H15.7501V7.33333H18.5001ZM6.58346 10.0833V19.25H3.83346C3.34723 19.25 2.88091 19.0568 2.53709 18.713C2.19328 18.3692 2.00012 17.9029 2.00012 17.4167V11.9167C2.00012 11.4304 2.19328 10.9641 2.53709 10.6203C2.88091 10.2765 3.34723 10.0833 3.83346 10.0833H6.58346Z" fill="#2F2F2F"/>
</svg>
