<svg width="23" height="22" viewBox="0 0 23 22" fill="none" xmlns="http://www.w3.org/2000/svg">
<path d="M13.0001 2.75C13.4864 2.75 13.9527 2.94315 14.2965 3.28697C14.6403 3.63079 14.8335 4.0971 14.8335 4.58333V7.33333H18.5001C18.9864 7.33333 19.4527 7.52649 19.7965 7.8703C20.1403 8.21412 20.3335 8.68044 20.3335 9.16667V17.4167C20.3335 17.9029 20.1403 18.3692 19.7965 18.713C19.4527 19.0568 18.9864 19.25 18.5001 19.25H3.83346C3.34723 19.25 2.88091 19.0568 2.53709 18.713C2.19328 18.3692 2.00012 17.9029 2.00012 17.4167V11.9167C2.00012 11.4304 2.19328 10.9641 2.53709 10.6203C2.88091 10.2765 3.34723 10.0833 3.83346 10.0833H7.50012V4.58333C7.50012 4.0971 7.69328 3.63079 8.03709 3.28697C8.38091 2.94315 8.84722 2.75 9.33346 2.75H13.0001ZM13.0001 4.58333H9.33346V17.4167H13.0001V4.58333ZM18.5001 9.16667H14.8335V17.4167H18.5001V9.16667ZM7.50012 11.9167H3.83346V17.4167H7.50012V11.9167Z" fill="#868686"/>
</svg>
