<svg width="12" height="12" viewBox="0 0 12 12" fill="none" xmlns="http://www.w3.org/2000/svg">
<path fill-rule="evenodd" clip-rule="evenodd" d="M6.00064 6.70707L8.82914 9.53557C8.92345 9.62665 9.04975 9.67705 9.18084 9.67591C9.31194 9.67477 9.43735 9.62219 9.53005 9.52948C9.62276 9.43678 9.67534 9.31137 9.67648 9.18028C9.67762 9.04918 9.62722 8.92288 9.53614 8.82857L6.70764 6.00007L9.53614 3.17157C9.62722 3.07727 9.67762 2.95097 9.67648 2.81987C9.67534 2.68878 9.62276 2.56337 9.53005 2.47067C9.43735 2.37796 9.31194 2.32538 9.18084 2.32424C9.04975 2.3231 8.92345 2.3735 8.82914 2.46457L6.00064 5.29307L3.17214 2.46457C3.07742 2.37575 2.95185 2.32726 2.82201 2.32937C2.69217 2.33147 2.56824 2.38402 2.47645 2.47587C2.38466 2.56773 2.3322 2.69169 2.33019 2.82154C2.32817 2.95138 2.37675 3.07691 2.46564 3.17157L5.29364 6.00007L2.46514 8.82857C2.41739 8.8747 2.3793 8.92987 2.35309 8.99087C2.32689 9.05187 2.3131 9.11749 2.31252 9.18387C2.31194 9.25026 2.32459 9.3161 2.34973 9.37755C2.37487 9.439 2.412 9.49483 2.45895 9.54177C2.50589 9.58872 2.56172 9.62584 2.62317 9.65099C2.68462 9.67613 2.75045 9.68878 2.81684 9.6882C2.88323 9.68762 2.94884 9.67383 3.00985 9.64763C3.07085 9.62142 3.12602 9.58333 3.17214 9.53557L6.00064 6.70707Z" fill="white"/>
</svg>
