<svg width="40" height="40" viewBox="0 0 40 40" fill="none" xmlns="http://www.w3.org/2000/svg">
<path fill-rule="evenodd" clip-rule="evenodd" d="M19.9999 21.296L25.1855 26.4816C25.3583 26.6485 25.5899 26.7409 25.8302 26.7388C26.0706 26.7368 26.3005 26.6404 26.4705 26.4704C26.6404 26.3004 26.7368 26.0705 26.7389 25.8302C26.741 25.5898 26.6486 25.3583 26.4816 25.1854L21.296 19.9998L26.4816 14.8142C26.6486 14.6413 26.741 14.4098 26.7389 14.1694C26.7368 13.9291 26.6404 13.6992 26.4705 13.5292C26.3005 13.3593 26.0706 13.2629 25.8302 13.2608C25.5899 13.2587 25.3583 13.3511 25.1855 13.5181L19.9999 18.7036L14.8143 13.5181C14.6406 13.3552 14.4104 13.2663 14.1724 13.2702C13.9343 13.274 13.7071 13.3704 13.5389 13.5388C13.3706 13.7072 13.2744 13.9344 13.2707 14.1725C13.267 14.4105 13.3561 14.6407 13.519 14.8142L18.7037 19.9998L13.5181 25.1854C13.4306 25.27 13.3607 25.3711 13.3127 25.4829C13.2647 25.5948 13.2394 25.7151 13.2383 25.8368C13.2373 25.9585 13.2605 26.0792 13.3065 26.1919C13.3526 26.3045 13.4207 26.4069 13.5068 26.4929C13.5928 26.579 13.6952 26.6471 13.8078 26.6931C13.9205 26.7392 14.0412 26.7624 14.1629 26.7614C14.2846 26.7603 14.4049 26.735 14.5167 26.687C14.6286 26.6389 14.7297 26.5691 14.8143 26.4816L19.9999 21.296Z" fill="#9C9C9C"/>
</svg>
