<svg width="24" height="24" viewBox="0 0 24 24" fill="none" xmlns="http://www.w3.org/2000/svg">
<rect width="24" height="24" rx="12" fill="#515151" fill-opacity="0.7"/>
<path fill-rule="evenodd" clip-rule="evenodd" d="M12.0006 12.7071L14.8291 15.5356C14.9234 15.6267 15.0497 15.6771 15.1808 15.6759C15.3119 15.6748 15.4373 15.6222 15.5301 15.5295C15.6228 15.4368 15.6753 15.3114 15.6765 15.1803C15.6776 15.0492 15.6272 14.9229 15.5361 14.8286L12.7076 12.0001L15.5361 9.17157C15.6272 9.07727 15.6776 8.95097 15.6765 8.81987C15.6753 8.68878 15.6228 8.56337 15.5301 8.47067C15.4373 8.37796 15.3119 8.32538 15.1808 8.32424C15.0497 8.3231 14.9234 8.3735 14.8291 8.46457L12.0006 11.2931L9.17214 8.46457C9.07742 8.37575 8.95185 8.32726 8.82201 8.32937C8.69217 8.33147 8.56824 8.38402 8.47645 8.47587C8.38466 8.56773 8.3322 8.69169 8.33019 8.82154C8.32817 8.95138 8.37675 9.07691 8.46564 9.17157L11.2936 12.0001L8.46514 14.8286C8.41739 14.8747 8.3793 14.9299 8.35309 14.9909C8.32689 15.0519 8.3131 15.1175 8.31252 15.1839C8.31194 15.2503 8.32459 15.3161 8.34973 15.3776C8.37487 15.439 8.412 15.4948 8.45895 15.5418C8.50589 15.5887 8.56172 15.6258 8.62317 15.651C8.68462 15.6761 8.75045 15.6888 8.81684 15.6882C8.88323 15.6876 8.94884 15.6738 9.00985 15.6476C9.07085 15.6214 9.12602 15.5833 9.17214 15.5356L12.0006 12.7071Z" fill="white"/>
</svg>
