<svg width="18" height="18" viewBox="0 0 18 18" fill="none" xmlns="http://www.w3.org/2000/svg">
<path fill-rule="evenodd" clip-rule="evenodd" d="M9.52831 11.7803C9.38766 11.9209 9.19693 11.9999 8.99806 11.9999C8.79919 11.9999 8.60846 11.9209 8.46781 11.7803L4.22506 7.53751C4.15343 7.46833 4.09629 7.38557 4.05698 7.29407C4.01768 7.20256 3.99699 7.10415 3.99612 7.00456C3.99526 6.90498 4.01423 6.80622 4.05194 6.71405C4.08965 6.62188 4.14534 6.53814 4.21576 6.46772C4.28618 6.3973 4.36992 6.34161 4.46209 6.3039C4.55427 6.26619 4.65303 6.24721 4.75261 6.24808C4.8522 6.24894 4.95061 6.26963 5.04211 6.30894C5.13362 6.34824 5.21637 6.40538 5.28556 6.47701L8.99806 10.1895L12.7106 6.47701C12.852 6.34039 13.0415 6.2648 13.2381 6.26651C13.4348 6.26822 13.6229 6.34709 13.7619 6.48615C13.901 6.6252 13.9799 6.81331 13.9816 7.00996C13.9833 7.20661 13.9077 7.39606 13.7711 7.53751L9.52831 11.7803Z" fill="#868686"/>
</svg>
