<svg width="18" height="18" viewBox="0 0 18 18" fill="none" xmlns="http://www.w3.org/2000/svg">
<path fill-rule="evenodd" clip-rule="evenodd" d="M3.75 1.5C3.35218 1.5 2.97064 1.65804 2.68934 1.93934C2.40804 2.22064 2.25 2.60218 2.25 3V14.25C2.25 14.6478 2.40804 15.0294 2.68934 15.3107C2.97064 15.592 3.35218 15.75 3.75 15.75H6V14.25H3.75V3H12.75V6H14.25V3C14.25 2.60218 14.092 2.22064 13.8107 1.93934C13.5294 1.65804 13.1478 1.5 12.75 1.5H3.75ZM6 5.25C5.80109 5.25 5.61032 5.32902 5.46967 5.46967C5.32902 5.61032 5.25 5.80109 5.25 6C5.25 6.19891 5.32902 6.38968 5.46967 6.53033C5.61032 6.67098 5.80109 6.75 6 6.75H9C9.19891 6.75 9.38968 6.67098 9.53033 6.53033C9.67098 6.38968 9.75 6.19891 9.75 6C9.75 5.80109 9.67098 5.61032 9.53033 5.46967C9.38968 5.32902 9.19891 5.25 9 5.25H6ZM11.9618 8.10825C12.3849 7.69202 12.9554 7.45986 13.549 7.46235C14.1425 7.46483 14.7111 7.70176 15.1307 8.12153C15.5504 8.54129 15.7872 9.10987 15.7895 9.70343C15.7919 10.297 15.5596 10.8674 15.1432 11.2905L10.9012 15.5333C10.7606 15.6739 10.5699 15.753 10.371 15.753H8.24925C8.05034 15.753 7.85957 15.674 7.71892 15.5333C7.57827 15.3927 7.49925 15.2019 7.49925 15.003V12.8812C7.49929 12.6824 7.57834 12.4916 7.719 12.351L11.9618 8.10825ZM14.0828 9.16875C13.9421 9.02815 13.7514 8.94916 13.5525 8.94916C13.3536 8.94916 13.1629 9.02815 13.0223 9.16875L14.0828 10.23C14.1525 10.1603 14.2078 10.0776 14.2455 9.98658C14.2833 9.89553 14.3027 9.79794 14.3027 9.69938C14.3027 9.60081 14.2833 9.50322 14.2455 9.41217C14.2078 9.32112 14.1525 9.23841 14.0828 9.16875ZM13.0223 11.2905L11.9618 10.23L8.99925 13.1925V14.253H10.0598L13.0223 11.2905Z" fill="#B1B1B1"/>
</svg>
