<svg width="16" height="16" viewBox="0 0 16 16" fill="none" xmlns="http://www.w3.org/2000/svg">
<path fill-rule="evenodd" clip-rule="evenodd" d="M11.1481 2.01978C10.8981 1.76982 10.559 1.62939 10.2054 1.62939C9.85188 1.62939 9.5128 1.76982 9.26276 2.01978L2.38676 8.89578C2.13669 9.14577 1.99617 9.48485 1.99609 9.83844V13.3271C1.99609 13.6984 2.29809 14.0004 2.66943 14.0004L13.3321 13.9998C13.5089 13.9998 13.6785 13.9295 13.8035 13.8045C13.9285 13.6795 13.9988 13.5099 13.9988 13.3331C13.9988 13.1563 13.9285 12.9867 13.8035 12.8617C13.6785 12.7367 13.5089 12.6664 13.3321 12.6664H8.04409L13.9768 6.73378C14.2267 6.48374 14.3671 6.14466 14.3671 5.79111C14.3671 5.43756 14.2267 5.09848 13.9768 4.84844L11.1481 2.01978ZM6.15876 12.6664L13.0341 5.79111L10.2054 2.96244L3.32943 9.83844V12.6664H6.15876Z" fill="#515151"/>
</svg>
