<svg width="23" height="22" viewBox="0 0 23 22" fill="none" xmlns="http://www.w3.org/2000/svg">
<path fill-rule="evenodd" clip-rule="evenodd" d="M12.9604 2.4644C12.6386 2.21405 12.2425 2.07812 11.8347 2.07812C11.427 2.07812 11.0309 2.21405 10.7091 2.4644L3.02373 8.44106C2.3344 8.97915 2.7139 10.0837 3.58748 10.0837H4.5014V17.4171C4.5014 17.9033 4.69455 18.3696 5.03837 18.7134C5.38218 19.0572 5.8485 19.2504 6.33473 19.2504H10.9181V12.8337C10.9181 12.5906 11.0146 12.3575 11.1866 12.1855C11.3585 12.0136 11.5916 11.9171 11.8347 11.9171C12.0778 11.9171 12.311 12.0136 12.4829 12.1855C12.6548 12.3575 12.7514 12.5906 12.7514 12.8337V19.2504H17.3347C17.821 19.2504 18.2873 19.0572 18.6311 18.7134C18.9749 18.3696 19.1681 17.9033 19.1681 17.4171V10.0837H20.082C20.9546 10.0837 21.336 8.97915 20.6457 8.44198L12.9604 2.4644Z" fill="#2F2F2F"/>
</svg>
