<svg width="23" height="22" viewBox="0 0 23 22" fill="none" xmlns="http://www.w3.org/2000/svg">
<path fill-rule="evenodd" clip-rule="evenodd" d="M12.9591 2.464C12.6372 2.21365 12.2411 2.07773 11.8334 2.07773C11.4257 2.07773 11.0296 2.21365 10.7077 2.464L3.02239 8.44067C2.33305 8.97875 2.71255 10.0833 3.58614 10.0833H4.50005V17.4167C4.50005 17.9029 4.69321 18.3692 5.03703 18.713C5.38084 19.0568 5.84716 19.25 6.33339 19.25H17.3334C17.8196 19.25 18.2859 19.0568 18.6297 18.713C18.9736 18.3692 19.1667 17.9029 19.1667 17.4167V10.0833H20.0806C20.9533 10.0833 21.3346 8.97875 20.6444 8.44158L12.9591 2.464ZM12.7501 17.4167V11.9167C12.7501 11.6736 12.6535 11.4404 12.4816 11.2685C12.3097 11.0966 12.0765 11 11.8334 11C11.5903 11 11.3571 11.0966 11.1852 11.2685C11.0133 11.4404 10.9167 11.6736 10.9167 11.9167V17.4167H6.33339V9.17583C6.33339 8.88525 6.19955 8.62583 5.98964 8.45625L11.8334 3.91142L17.6771 8.45625C17.5693 8.54256 17.4824 8.6521 17.4229 8.7767C17.3634 8.90131 17.3328 9.03775 17.3334 9.17583V17.4167H12.7501Z" fill="#868686"/>
</svg>
