<svg width="16" height="16" viewBox="0 0 16 16" fill="none" xmlns="http://www.w3.org/2000/svg">
<path fill-rule="evenodd" clip-rule="evenodd" d="M10.4713 7.52867C10.5963 7.65368 10.6665 7.82322 10.6665 8C10.6665 8.17677 10.5963 8.34631 10.4713 8.47133L6.69999 12.2427C6.6385 12.3063 6.56493 12.3571 6.4836 12.3921C6.40226 12.427 6.31478 12.4454 6.22626 12.4462C6.13774 12.4469 6.04996 12.4301 5.96803 12.3965C5.88609 12.363 5.81166 12.3135 5.74906 12.2509C5.68647 12.1883 5.63697 12.1139 5.60345 12.032C5.56993 11.95 5.55306 11.8623 5.55383 11.7737C5.5546 11.6852 5.57299 11.5977 5.60793 11.5164C5.64287 11.4351 5.69365 11.3615 5.75733 11.3L9.05733 8L5.75733 4.7C5.63589 4.57426 5.56869 4.40586 5.57021 4.23106C5.57173 4.05627 5.64184 3.88906 5.76545 3.76545C5.88905 3.64185 6.05626 3.57173 6.23106 3.57022C6.40586 3.5687 6.57426 3.63589 6.69999 3.75733L10.4713 7.52867Z" fill="#CECECE"/>
</svg>
