<svg width="512" height="512" viewBox="0 0 512 512" fill="none" xmlns="http://www.w3.org/2000/svg">
<path d="M396.467 445.632H117.009C93.4286 445.632 74.2344 422.953 74.2344 395.063C74.2344 386.038 76.2811 377.149 80.1657 369.372L219.895 91.2318C227.56 75.8985 241.679 66.3672 256.738 66.3672C271.796 66.3672 285.915 75.8985 293.58 91.2318L433.309 369.359V369.372C437.194 377.15 439.241 386.038 439.241 395.063C439.241 422.953 420.047 445.632 396.467 445.632Z" fill="url(#paint0_linear_2532_27466)"/>
<path d="M313.93 68.592C302.442 47.8165 280.348 35 256.487 35C232.627 35 210.535 47.8165 199.045 68.592L22.2974 377.992C-2.69317 420.288 27.6425 477 79.7402 477H433.235C485.126 477 515.787 420.492 490.677 377.992L313.93 68.592ZM256.487 374.976C244.114 374.976 234.394 365.25 234.394 352.876C234.394 340.498 244.114 330.776 256.487 330.776C268.861 330.776 278.581 340.498 278.581 352.876C278.581 365.25 268.861 374.976 256.487 374.976ZM278.581 264.476C278.581 276.85 268.861 286.576 256.487 286.576C244.114 286.576 234.394 276.85 234.394 264.476V176.076C234.394 163.698 244.114 153.976 256.487 153.976C268.861 153.976 278.581 163.698 278.581 176.076V264.476Z" fill="url(#paint1_linear_2532_27466)"/>
<defs>
<linearGradient id="paint0_linear_2532_27466" x1="256.738" y1="445.632" x2="256.738" y2="66.3672" gradientUnits="userSpaceOnUse">
<stop stop-color="#FFD2D6"/>
<stop offset="1" stop-color="#FFEDEF"/>
</linearGradient>
<linearGradient id="paint1_linear_2532_27466" x1="256.498" y1="477" x2="256.498" y2="35" gradientUnits="userSpaceOnUse">
<stop stop-color="#F95943"/>
<stop offset="1" stop-color="#FFD2D6"/>
</linearGradient>
</defs>
</svg>
