<svg width="79" height="18" viewBox="0 0 79 18" fill="none" xmlns="http://www.w3.org/2000/svg">
<path d="M76.7896 13.7809C76.2527 13.7809 75.7782 13.6684 75.3662 13.4434C74.9541 13.2059 74.6295 12.8809 74.3922 12.4684C74.155 12.0434 74.0364 11.5434 74.0364 10.9684V5.75586H72.332V4.98711C72.9439 4.73711 73.4495 4.31211 73.8491 3.71211C74.2611 3.09961 74.617 2.34336 74.9167 1.44336H75.9093V4.08711H78.8685V5.75586H75.9093V10.6871C75.9093 11.0871 76.0279 11.4059 76.2652 11.6434C76.5149 11.8684 76.8458 11.9809 77.2578 11.9809C77.6324 11.9809 77.9633 11.9309 78.2505 11.8309C78.5501 11.7309 78.7999 11.6246 78.9996 11.5121V13.1246C78.7624 13.3371 78.4565 13.4996 78.0819 13.6121C77.7198 13.7246 77.289 13.7809 76.7896 13.7809Z" fill="#2F2F2F"/>
<path d="M66.005 13.7809C65.2309 13.7809 64.5129 13.5809 63.8511 13.1809C63.2018 12.7809 62.6774 12.2184 62.2779 11.4934C61.8908 10.7559 61.6973 9.89336 61.6973 8.90586C61.6973 7.86836 61.8908 6.97461 62.2779 6.22461C62.6774 5.47461 63.2143 4.89961 63.8886 4.49961C64.5753 4.08711 65.337 3.88086 66.1736 3.88086C66.698 3.88086 67.2286 4.00586 67.7655 4.25586C68.3149 4.50586 68.7769 4.84336 69.1515 5.26836V4.08711H71.0244V13.4996H69.1515V11.9059C68.8518 12.4059 68.4273 12.8434 67.8779 13.2184C67.341 13.5934 66.7167 13.7809 66.005 13.7809ZM66.3983 11.9246C66.9102 11.9246 67.3722 11.7934 67.7843 11.5309C68.2088 11.2559 68.5459 10.8809 68.7957 10.4059C69.0454 9.91836 69.164 9.36211 69.1515 8.73711V7.10586C68.7769 6.68086 68.3774 6.34336 67.9528 6.09336C67.5408 5.84336 67.0663 5.71836 66.5294 5.71836C65.9301 5.71836 65.4119 5.86836 64.9749 6.16836C64.5504 6.46836 64.2195 6.86211 63.9822 7.34961C63.7575 7.83711 63.6451 8.35586 63.6451 8.90586C63.6451 9.45586 63.7575 9.96211 63.9822 10.4246C64.2195 10.8871 64.5441 11.2559 64.9562 11.5309C65.3682 11.7934 65.8489 11.9246 66.3983 11.9246Z" fill="#2F2F2F"/>
<path d="M56.5238 13.7809C55.8246 13.7809 55.1691 13.6559 54.5572 13.4059C53.9579 13.1559 53.4335 12.8059 52.984 12.3559C52.5345 11.9059 52.1849 11.3871 51.9351 10.7996C51.6854 10.1996 51.5605 9.55586 51.5605 8.86836C51.5605 7.96836 51.7603 7.14336 52.1599 6.39336C52.5594 5.63086 53.1088 5.02461 53.8081 4.57461C54.5073 4.11211 55.3002 3.88086 56.1867 3.88086C57.1356 3.88086 57.9347 4.08086 58.584 4.48086C59.2333 4.88086 59.7203 5.43086 60.0449 6.13086C60.382 6.81836 60.5506 7.60586 60.5506 8.49336V9.44961H53.3024V8.00586H58.7339C58.6839 7.45586 58.5278 7.00586 58.2656 6.65586C58.0159 6.30586 57.7037 6.04336 57.3292 5.86836C56.9671 5.69336 56.58 5.60586 56.1679 5.60586C55.6186 5.60586 55.1378 5.75586 54.7258 6.05586C54.3262 6.34336 54.0141 6.73086 53.7893 7.21836C53.5646 7.70586 53.4522 8.25586 53.4522 8.86836C53.4522 9.44336 53.5771 9.96836 53.8268 10.4434C54.089 10.9184 54.4573 11.2996 54.9318 11.5871C55.4063 11.8746 55.9494 12.0184 56.5613 12.0184C57.248 12.0184 57.8723 11.8621 58.4342 11.5496C59.0085 11.2246 59.483 10.8871 59.8576 10.5371V12.4121C59.6703 12.6121 59.4081 12.8184 59.071 13.0309C58.7339 13.2434 58.3468 13.4184 57.9098 13.5559C57.4727 13.7059 57.0108 13.7809 56.5238 13.7809Z" fill="#2F2F2F"/>
<path d="M41.9844 18.0004L45.5055 11.4754L48.8206 4.08789H51.0119L44.1383 18.0004H41.9844ZM44.8875 13.2191L40.6172 4.08789H42.8272L46.4233 11.8316L44.8875 13.2191Z" fill="#2F2F2F"/>
<path d="M34.3917 13.7809C33.6176 13.7809 32.8996 13.5809 32.2378 13.1809C31.5886 12.7809 31.0641 12.2184 30.6646 11.4934C30.2775 10.7559 30.084 9.89336 30.084 8.90586C30.084 7.86836 30.2775 6.97461 30.6646 6.22461C31.0641 5.47461 31.6011 4.89961 32.2753 4.49961C32.962 4.08711 33.7237 3.88086 34.5603 3.88086C35.0847 3.88086 35.6154 4.00586 36.1523 4.25586C36.7017 4.50586 37.1636 4.84336 37.5382 5.26836V4.08711H39.4112V13.4996H37.5382V11.9059C37.2386 12.4059 36.814 12.8434 36.2646 13.2184C35.7277 13.5934 35.1034 13.7809 34.3917 13.7809ZM34.785 11.9246C35.297 11.9246 35.7589 11.7934 36.171 11.5309C36.5955 11.2559 36.9326 10.8809 37.1824 10.4059C37.4321 9.91836 37.5507 9.36211 37.5382 8.73711V7.10586C37.1636 6.68086 36.7641 6.34336 36.3396 6.09336C35.9275 5.84336 35.453 5.71836 34.9161 5.71836C34.3168 5.71836 33.7986 5.86836 33.3616 6.16836C32.9371 6.46836 32.6062 6.86211 32.369 7.34961C32.1442 7.83711 32.0318 8.35586 32.0318 8.90586C32.0318 9.45586 32.1442 9.96211 32.369 10.4246C32.6062 10.8871 32.9308 11.2559 33.3429 11.5309C33.7549 11.7934 34.2356 11.9246 34.785 11.9246Z" fill="#2F2F2F"/>
<path d="M23.2257 13.7812C22.4516 13.7812 21.7336 13.5812 21.0718 13.1812C20.4226 12.7812 19.8981 12.2187 19.4986 11.4937C19.1115 10.7562 18.918 9.89375 18.918 8.90625C18.918 7.86875 19.1115 6.975 19.4986 6.225C19.8981 5.475 20.435 4.9 21.1093 4.5C21.796 4.0875 22.5577 3.88125 23.3943 3.88125C23.9187 3.88125 24.4493 4.00625 24.9862 4.25625C25.5356 4.50625 25.9976 4.84375 26.3722 5.26875V0H28.2451V13.5H26.3722V11.9062C26.0725 12.4062 25.648 12.8437 25.0986 13.2187C24.5617 13.5937 23.9374 13.7812 23.2257 13.7812ZM23.619 11.925C24.1309 11.925 24.5929 11.7937 25.005 11.5312C25.4295 11.2562 25.7666 10.8812 26.0164 10.4062C26.2661 9.91875 26.3847 9.3625 26.3722 8.7375V7.10625C25.9976 6.68125 25.5981 6.35 25.1735 6.1125C24.7615 5.8625 24.287 5.7375 23.7501 5.7375C23.1508 5.7375 22.6326 5.8875 22.1956 6.1875C21.7711 6.4875 21.4402 6.88125 21.2029 7.36875C20.9782 7.84375 20.8658 8.35625 20.8658 8.90625C20.8658 9.45625 20.9782 9.9625 21.2029 10.425C21.4402 10.8875 21.7648 11.2562 22.1769 11.5312C22.5889 11.7937 23.0696 11.925 23.619 11.925Z" fill="#2F2F2F"/>
<path d="M12.7699 13.7809C12.0707 13.7809 11.4214 13.6559 10.8221 13.4059C10.2227 13.1434 9.69205 12.7871 9.23006 12.3371C8.78056 11.8746 8.43095 11.3496 8.18123 10.7621C7.9315 10.1621 7.80664 9.51836 7.80664 8.83086C7.80664 8.15586 7.9315 7.51836 8.18123 6.91836C8.43095 6.31836 8.78056 5.79336 9.23006 5.34336C9.69205 4.89336 10.2227 4.53711 10.8221 4.27461C11.4214 4.01211 12.0707 3.88086 12.7699 3.88086C13.4691 3.88086 14.1184 4.01211 14.7177 4.27461C15.3171 4.53711 15.8415 4.89336 16.291 5.34336C16.753 5.79336 17.1088 6.31836 17.3586 6.91836C17.6083 7.51836 17.7331 8.15586 17.7331 8.83086C17.7331 9.51836 17.6083 10.1621 17.3586 10.7621C17.1088 11.3496 16.753 11.8746 16.291 12.3371C15.8415 12.7871 15.3171 13.1434 14.7177 13.4059C14.1184 13.6559 13.4691 13.7809 12.7699 13.7809ZM12.7699 11.9621C13.3567 11.9621 13.8749 11.8246 14.3244 11.5496C14.7739 11.2746 15.1235 10.8996 15.3733 10.4246C15.6355 9.94961 15.7666 9.41836 15.7666 8.83086C15.7666 8.23086 15.6355 7.69961 15.3733 7.23711C15.1235 6.76211 14.7739 6.38711 14.3244 6.11211C13.8749 5.83711 13.3567 5.69961 12.7699 5.69961C12.1955 5.69961 11.6774 5.83711 11.2154 6.11211C10.7659 6.38711 10.41 6.76211 10.1478 7.23711C9.89807 7.69961 9.77321 8.23086 9.77321 8.83086C9.77321 9.41836 9.89807 9.94961 10.1478 10.4246C10.41 10.8996 10.7659 11.2746 11.2154 11.5496C11.6774 11.8246 12.1955 11.9621 12.7699 11.9621Z" fill="#2F2F2F"/>
<path d="M4.45756 13.7809C3.92066 13.7809 3.44618 13.6684 3.03414 13.4434C2.6221 13.2059 2.29746 12.8809 2.06022 12.4684C1.82298 12.0434 1.70436 11.5434 1.70436 10.9684V5.75586H0V4.98711C0.611822 4.73711 1.11751 4.31211 1.51707 3.71211C1.92911 3.09961 2.28497 2.34336 2.58464 1.44336H3.57729V4.08711H6.53651V5.75586H3.57729V10.6871C3.57729 11.0871 3.69591 11.4059 3.93314 11.6434C4.18287 11.8684 4.51375 11.9809 4.92579 11.9809C5.30038 11.9809 5.63126 11.9309 5.91844 11.8309C6.21811 11.7309 6.46784 11.6246 6.66761 11.5121V13.1246C6.43038 13.3371 6.12447 13.4996 5.74988 13.6121C5.38778 13.7246 4.95701 13.7809 4.45756 13.7809Z" fill="#2F2F2F"/>
</svg>
