<svg width="381" height="270" viewBox="0 0 381 270" fill="none" xmlns="http://www.w3.org/2000/svg">
<g clip-path="url(#clip0_1971_19732)">
<rect width="380" height="270" transform="translate(0.5)" fill="white"/>
<g opacity="0.4">
<g filter="url(#filter0_f_1971_19732)">
<circle cx="190.128" cy="134.28" r="146.107" transform="rotate(58.73 190.128 134.28)" fill="url(#paint0_linear_1971_19732)"/>
</g>
<g filter="url(#filter1_f_1971_19732)">
<path d="M174.226 74.3748C220.807 61.8934 263.431 104.518 250.95 151.099C238.469 197.68 180.242 213.282 146.143 179.182C112.043 145.082 127.645 86.8561 174.226 74.3748Z" fill="url(#paint1_linear_1971_19732)"/>
</g>
</g>
<g style="mix-blend-mode:multiply" opacity="0.5">
<path d="M374.236 158.743C371.567 158.743 369.209 158.184 367.16 157.067C365.112 155.887 363.498 154.273 362.318 152.225C361.139 150.115 360.549 147.632 360.549 144.776V118.892H352.076V115.074C355.118 113.833 357.632 111.722 359.618 108.743C361.667 105.701 363.436 101.946 364.925 97.4766H369.86V110.605H384.572V118.892H369.86V143.38C369.86 145.366 370.45 146.949 371.629 148.128C372.871 149.245 374.516 149.804 376.564 149.804C378.426 149.804 380.071 149.556 381.499 149.059C382.989 148.563 384.23 148.035 385.224 147.476V155.484C384.044 156.539 382.523 157.346 380.661 157.905C378.861 158.463 376.719 158.743 374.236 158.743Z" fill="url(#paint2_linear_1971_19732)"/>
<path d="M322.083 158.743C318.235 158.743 314.666 157.75 311.376 155.763C308.148 153.777 305.541 150.984 303.554 147.384C301.63 143.721 300.668 139.438 300.668 134.534C300.668 129.382 301.63 124.944 303.554 121.22C305.541 117.495 308.21 114.64 311.562 112.654C314.976 110.605 318.762 109.581 322.921 109.581C325.529 109.581 328.167 110.202 330.836 111.443C333.567 112.685 335.864 114.361 337.726 116.471V110.605H347.037V157.346H337.726V149.432C336.236 151.915 334.126 154.087 331.394 155.95C328.725 157.812 325.622 158.743 322.083 158.743ZM324.039 149.525C326.584 149.525 328.88 148.873 330.929 147.57C333.039 146.204 334.715 144.342 335.957 141.983C337.198 139.562 337.788 136.8 337.726 133.696V125.596C335.864 123.485 333.877 121.809 331.767 120.568C329.718 119.327 327.36 118.706 324.691 118.706C321.711 118.706 319.135 119.451 316.962 120.94C314.852 122.43 313.207 124.385 312.027 126.806C310.91 129.227 310.351 131.803 310.351 134.534C310.351 137.266 310.91 139.78 312.027 142.076C313.207 144.373 314.821 146.204 316.869 147.57C318.918 148.873 321.307 149.525 324.039 149.525Z" fill="url(#paint3_linear_1971_19732)"/>
<path d="M273.989 158.743C270.513 158.743 267.254 158.122 264.212 156.881C261.233 155.639 258.626 153.901 256.391 151.667C254.156 149.432 252.418 146.856 251.177 143.938C249.935 140.959 249.314 137.762 249.314 134.348C249.314 129.879 250.308 125.782 252.294 122.058C254.28 118.271 257.012 115.261 260.488 113.026C263.964 110.729 267.906 109.581 272.313 109.581C277.03 109.581 281.003 110.574 284.231 112.561C287.459 114.547 289.88 117.278 291.494 120.754C293.17 124.168 294.008 128.079 294.008 132.486V137.235H257.974V130.065H284.976C284.728 127.334 283.952 125.099 282.648 123.361C281.407 121.623 279.855 120.32 277.993 119.451C276.192 118.582 274.268 118.147 272.22 118.147C269.488 118.147 267.099 118.892 265.05 120.382C263.064 121.809 261.512 123.734 260.395 126.155C259.277 128.575 258.719 131.307 258.719 134.348C258.719 137.204 259.339 139.811 260.581 142.169C261.884 144.528 263.716 146.421 266.074 147.849C268.433 149.277 271.133 149.991 274.175 149.991C277.589 149.991 280.693 149.215 283.486 147.663C286.341 146.049 288.7 144.373 290.562 142.635V151.946C289.631 152.939 288.328 153.963 286.652 155.019C284.976 156.074 283.052 156.943 280.879 157.626C278.706 158.37 276.41 158.743 273.989 158.743Z" fill="url(#paint4_linear_1971_19732)"/>
<path d="M204.045 179.693L221.55 147.291L238.031 110.605H248.924L214.753 179.693H204.045ZM218.477 155.95L197.248 110.605H208.235L226.112 149.06L218.477 155.95Z" fill="url(#paint5_linear_1971_19732)"/>
<path d="M165.357 158.743C161.508 158.743 157.939 157.75 154.649 155.763C151.421 153.777 148.814 150.984 146.828 147.384C144.904 143.721 143.941 139.438 143.941 134.534C143.941 129.382 144.904 124.944 146.828 121.22C148.814 117.495 151.483 114.64 154.835 112.654C158.249 110.605 162.036 109.581 166.195 109.581C168.802 109.581 171.44 110.202 174.109 111.443C176.84 112.685 179.137 114.361 180.999 116.471V110.605H190.31V157.346H180.999V149.432C179.51 151.915 177.399 154.087 174.668 155.95C171.999 157.812 168.895 158.743 165.357 158.743ZM167.312 149.525C169.857 149.525 172.154 148.873 174.202 147.57C176.313 146.204 177.989 144.342 179.23 141.983C180.472 139.562 181.062 136.8 180.999 133.696V125.596C179.137 123.485 177.151 121.809 175.04 120.568C172.992 119.327 170.633 118.706 167.964 118.706C164.984 118.706 162.408 119.451 160.236 120.94C158.125 122.43 156.48 124.385 155.301 126.806C154.184 129.227 153.625 131.803 153.625 134.534C153.625 137.266 154.184 139.78 155.301 142.076C156.48 144.373 158.094 146.204 160.143 147.57C162.191 148.873 164.581 149.525 167.312 149.525Z" fill="url(#paint6_linear_1971_19732)"/>
<path d="M111.57 158.742C107.721 158.742 104.152 157.749 100.862 155.763C97.6342 153.776 95.0271 150.983 93.0407 147.383C91.1164 143.721 90.1543 139.437 90.1543 134.534C90.1543 129.382 91.1164 124.943 93.0407 121.219C95.0271 117.495 97.6963 114.639 101.048 112.653C104.462 110.605 108.249 109.58 112.408 109.58C115.015 109.58 117.653 110.201 120.322 111.443C123.053 112.684 125.35 114.36 127.212 116.47V90.3066H136.523V157.346H127.212V149.431C125.723 151.914 123.612 154.087 120.881 155.949C118.212 157.811 115.108 158.742 111.57 158.742ZM113.525 149.524C116.07 149.524 118.367 148.873 120.415 147.569C122.526 146.203 124.202 144.341 125.443 141.982C126.685 139.562 127.274 136.799 127.212 133.696V125.595C125.35 123.485 123.364 121.84 121.253 120.66C119.205 119.419 116.846 118.798 114.177 118.798C111.197 118.798 108.621 119.543 106.449 121.033C104.338 122.523 102.693 124.478 101.514 126.899C100.396 129.257 99.8378 131.802 99.8378 134.534C99.8378 137.265 100.396 139.779 101.514 142.076C102.693 144.372 104.307 146.203 106.356 147.569C108.404 148.873 110.794 149.524 113.525 149.524Z" fill="url(#paint7_linear_1971_19732)"/>
<path d="M59.5337 158.743C56.0576 158.743 52.8297 158.122 49.8502 156.881C46.8706 155.577 44.2325 153.808 41.9358 151.573C39.7011 149.277 37.9631 146.67 36.7216 143.752C35.4801 140.773 34.8594 137.576 34.8594 134.162C34.8594 130.81 35.4801 127.644 36.7216 124.665C37.9631 121.685 39.7011 119.078 41.9358 116.844C44.2325 114.609 46.8706 112.84 49.8502 111.536C52.8297 110.233 56.0576 109.581 59.5337 109.581C63.0098 109.581 66.2377 110.233 69.2172 111.536C72.1967 112.84 74.8038 114.609 77.0385 116.844C79.3352 119.078 81.1043 121.685 82.3458 124.665C83.5873 127.644 84.208 130.81 84.208 134.162C84.208 137.576 83.5873 140.773 82.3458 143.752C81.1043 146.67 79.3352 149.277 77.0385 151.573C74.8038 153.808 72.1967 155.577 69.2172 156.881C66.2377 158.122 63.0098 158.743 59.5337 158.743ZM59.5337 149.711C62.4512 149.711 65.0272 149.028 67.2619 147.663C69.4965 146.297 71.2346 144.435 72.4761 142.076C73.7796 139.718 74.4314 137.079 74.4314 134.162C74.4314 131.182 73.7796 128.544 72.4761 126.248C71.2346 123.889 69.4965 122.027 67.2619 120.661C65.0272 119.295 62.4512 118.613 59.5337 118.613C56.6783 118.613 54.1022 119.295 51.8055 120.661C49.5709 122.027 47.8018 123.889 46.4982 126.248C45.2567 128.544 44.636 131.182 44.636 134.162C44.636 137.079 45.2567 139.718 46.4982 142.076C47.8018 144.435 49.5709 146.297 51.8055 147.663C54.1022 149.028 56.6783 149.711 59.5337 149.711Z" fill="url(#paint8_linear_1971_19732)"/>
<path d="M19.2717 158.743C16.6025 158.743 14.2437 158.184 12.1952 157.067C10.1468 155.887 8.5329 154.273 7.35349 152.225C6.17409 150.115 5.58439 147.632 5.58439 144.776V118.892H-2.88867V115.074C0.152941 113.833 2.66693 111.722 4.65329 108.743C6.70172 105.701 8.47082 101.946 9.96059 97.4766H14.8955V110.605H29.6069V118.892H14.8955V143.38C14.8955 145.366 15.4852 146.949 16.6646 148.128C17.906 149.245 19.551 149.804 21.5994 149.804C23.4616 149.804 25.1066 149.556 26.5343 149.059C28.024 148.563 29.2655 148.035 30.2587 147.476V155.484C29.0793 156.539 27.5585 157.346 25.6963 157.905C23.8961 158.463 21.7546 158.743 19.2717 158.743Z" fill="url(#paint9_linear_1971_19732)"/>
</g>
</g>
<defs>
<filter id="filter0_f_1971_19732" x="-16.0296" y="-71.8773" width="412.315" height="412.315" filterUnits="userSpaceOnUse" color-interpolation-filters="sRGB">
<feFlood flood-opacity="0" result="BackgroundImageFix"/>
<feBlend mode="normal" in="SourceGraphic" in2="BackgroundImageFix" result="shape"/>
<feGaussianBlur stdDeviation="30.0148" result="effect1_foregroundBlur_1971_19732"/>
</filter>
<filter id="filter1_f_1971_19732" x="82.7337" y="27.1516" width="215.439" height="215.439" filterUnits="userSpaceOnUse" color-interpolation-filters="sRGB">
<feFlood flood-opacity="0" result="BackgroundImageFix"/>
<feBlend mode="normal" in="SourceGraphic" in2="BackgroundImageFix" result="shape"/>
<feGaussianBlur stdDeviation="22.5111" result="effect1_foregroundBlur_1971_19732"/>
</filter>
<linearGradient id="paint0_linear_1971_19732" x1="74.226" y1="8.31011" x2="278.167" y2="280.387" gradientUnits="userSpaceOnUse">
<stop stop-color="#FFD600"/>
<stop offset="1" stop-color="#FF0000" stop-opacity="0"/>
</linearGradient>
<linearGradient id="paint1_linear_1971_19732" x1="279.033" y1="46.2917" x2="101.846" y2="223.479" gradientUnits="userSpaceOnUse">
<stop offset="0.23" stop-color="#FF0000" stop-opacity="0.75"/>
<stop offset="1" stop-color="#00FFFF" stop-opacity="0"/>
</linearGradient>
<linearGradient id="paint2_linear_1971_19732" x1="368.696" y1="159.562" x2="365.293" y2="97.6609" gradientUnits="userSpaceOnUse">
<stop stop-color="#E3C0FA"/>
<stop offset="1" stop-color="#F4E6FD"/>
</linearGradient>
<linearGradient id="paint3_linear_1971_19732" x1="323.917" y1="159.401" x2="322.348" y2="109.628" gradientUnits="userSpaceOnUse">
<stop stop-color="#E3C0FA"/>
<stop offset="1" stop-color="#F4E6FD"/>
</linearGradient>
<linearGradient id="paint4_linear_1971_19732" x1="271.723" y1="159.401" x2="270.095" y2="109.632" gradientUnits="userSpaceOnUse">
<stop stop-color="#E3C0FA"/>
<stop offset="1" stop-color="#F4E6FD"/>
</linearGradient>
<linearGradient id="paint5_linear_1971_19732" x1="223.158" y1="180.617" x2="220.379" y2="110.713" gradientUnits="userSpaceOnUse">
<stop stop-color="#E3C0FA"/>
<stop offset="1" stop-color="#F4E6FD"/>
</linearGradient>
<linearGradient id="paint6_linear_1971_19732" x1="167.19" y1="159.401" x2="165.621" y2="109.628" gradientUnits="userSpaceOnUse">
<stop stop-color="#E3C0FA"/>
<stop offset="1" stop-color="#F4E6FD"/>
</linearGradient>
<linearGradient id="paint7_linear_1971_19732" x1="113.403" y1="159.658" x2="110.365" y2="90.437" gradientUnits="userSpaceOnUse">
<stop stop-color="#E3C0FA"/>
<stop offset="1" stop-color="#F4E6FD"/>
</linearGradient>
<linearGradient id="paint8_linear_1971_19732" x1="59.6023" y1="159.401" x2="58.1274" y2="109.623" gradientUnits="userSpaceOnUse">
<stop stop-color="#E3C0FA"/>
<stop offset="1" stop-color="#F4E6FD"/>
</linearGradient>
<linearGradient id="paint9_linear_1971_19732" x1="13.7311" y1="159.562" x2="10.3283" y2="97.6609" gradientUnits="userSpaceOnUse">
<stop stop-color="#E3C0FA"/>
<stop offset="1" stop-color="#F4E6FD"/>
</linearGradient>
<clipPath id="clip0_1971_19732">
<rect width="380" height="270" fill="white" transform="translate(0.5)"/>
</clipPath>
</defs>
</svg>
