<svg width="512" height="510" viewBox="0 0 512 510" fill="none" xmlns="http://www.w3.org/2000/svg">
<path d="M498.112 265.538C491.258 263.436 483.882 266.478 480.496 272.794C451.669 326.584 395.917 360 335 360C244.019 360 170 285.981 170 195C170 117.393 225.057 49.5 300.914 33.567C307.937 32.092 312.932 25.848 312.829 18.672C312.726 11.496 307.554 5.398 300.491 4.125C285.305 1.388 270 0 255 0C186.887 0 122.851 26.524 74.688 74.688C26.524 122.851 0 186.887 0 255C0 307.399 16.111 358.193 45.829 400.779C48.814 400.276 51.875 400 55 400C57.324 400 59.646 400.154 61.951 400.459C68.342 377.165 89.704 360 115 360C140.722 360 162.376 377.747 168.359 401.641C192.253 407.624 210 429.278 210 455C210 473.886 200.429 490.576 185.886 500.483C208.331 506.795 231.539 510 255 510C318.5 510 379.345 486.514 426.327 443.868C472.978 401.523 502.21 343.83 508.639 281.417C509.373 274.289 504.963 267.637 498.112 265.538Z" fill="url(#paint0_linear_528_6295)"/>
<path d="M437 150C429.85 150 423.694 144.953 422.292 137.942C417.408 113.525 398.476 94.592 374.059 89.709C367.047 88.306 362 82.15 362 75C362 67.85 367.047 61.694 374.058 60.292C398.475 55.408 417.408 36.476 422.291 12.059C423.694 5.047 429.85 0 437 0C444.15 0 450.306 5.047 451.708 12.058C456.592 36.475 475.524 55.408 499.941 60.291C506.953 61.694 512 67.85 512 75C512 82.15 506.953 88.306 499.942 89.708C475.525 94.592 456.592 113.524 451.709 137.941C450.306 144.953 444.15 150 437 150ZM335 310C327.85 310 321.694 304.953 320.292 297.942C315.408 273.525 296.476 254.592 272.059 249.709C265.047 248.306 260 242.15 260 235C260 227.85 265.047 221.694 272.058 220.292C296.475 215.408 315.408 196.476 320.291 172.059C321.694 165.047 327.85 160 335 160C342.15 160 348.306 165.047 349.708 172.058C354.592 196.475 373.524 215.408 397.941 220.291C404.953 221.694 410 227.85 410 235C410 242.15 404.953 248.306 397.942 249.708C373.525 254.592 354.592 273.524 349.709 297.941C348.306 304.953 342.15 310 335 310ZM155 510H55C24.673 510 0 485.327 0 455C0 424.673 24.673 400 55 400C57.324 400 59.646 400.154 61.951 400.459C68.342 377.165 89.704 360 115 360C140.722 360 162.376 377.747 168.359 401.641C192.253 407.624 210 429.278 210 455C210 485.327 185.327 510 155 510Z" fill="url(#paint1_linear_528_6295)"/>
<defs>
<linearGradient id="paint0_linear_528_6295" x1="254.359" y1="510" x2="254.359" y2="0" gradientUnits="userSpaceOnUse">
<stop stop-color="#A93AFF"/>
<stop offset="1" stop-color="#FF81FF"/>
</linearGradient>
<linearGradient id="paint1_linear_528_6295" x1="256" y1="510" x2="256" y2="0" gradientUnits="userSpaceOnUse">
<stop stop-color="#FFBEF9"/>
<stop offset="1" stop-color="#FFF1FF"/>
</linearGradient>
</defs>
</svg>
